<?xml version="1.0" encoding="UTF-8" standalone="no"?>
<!-- Created with Inkscape (http://www.inkscape.org/) -->

<svg
   width="200"
   height="200"
   viewBox="0 0 52.916665 52.916665"
   version="1.1"
   id="svg5"
   xml:space="preserve"
   inkscape:export-filename="test.svg"
   inkscape:export-xdpi="96"
   inkscape:export-ydpi="96"
   inkscape:version="1.2.2 (b0a8486, 2022-12-01)"
   sodipodi:docname="cb_loader_sources2.svg"
   xmlns:inkscape="http://www.inkscape.org/namespaces/inkscape"
   xmlns:sodipodi="http://sodipodi.sourceforge.net/DTD/sodipodi-0.dtd"
   xmlns="http://www.w3.org/2000/svg"
   xmlns:svg="http://www.w3.org/2000/svg"><sodipodi:namedview
     id="namedview7"
     pagecolor="#ffffff"
     bordercolor="#666666"
     borderopacity="1.0"
     inkscape:showpageshadow="2"
     inkscape:pageopacity="0.0"
     inkscape:pagecheckerboard="0"
     inkscape:deskcolor="#d1d1d1"
     inkscape:document-units="mm"
     showgrid="false"
     inkscape:zoom="1.6239414"
     inkscape:cx="125.6203"
     inkscape:cy="161.02798"
     inkscape:window-width="1438"
     inkscape:window-height="721"
     inkscape:window-x="0"
     inkscape:window-y="65"
     inkscape:window-maximized="0"
     inkscape:current-layer="layer1" /><defs
     id="defs2" /><g
     inkscape:label="Réteg 1"
     inkscape:groupmode="layer"
     id="layer1"><path
       id="path1095"
       style="display:inline;fill:#00fefe;stroke-width:0.264583"
       d="M 45.686617 28.566732 C 44.898735 28.571319 44.714583 28.76489 44.714583 29.208553 C 44.714583 33.876005 41.124896 38.784387 36.323881 41.786597 C 34.097448 43.330018 31.440702 44.369605 28.4856 44.59366 C 28.196091 44.623001 27.906175 44.644729 27.616919 44.656706 L 24.67498 44.778662 L 24.508065 46.37288 C 24.416414 47.249761 24.341667 48.263353 24.341667 48.625456 L 24.341667 49.283813 L 27.582812 49.146354 C 38.302193 48.691527 47.518785 40.533301 49.080725 30.117542 L 49.260559 28.919165 L 47.847725 28.74915 C 46.849552 28.629283 46.159347 28.56398 45.686617 28.566732 z " /><path
       style="display:inline;fill:#0d314e;stroke-width:0.264583"
       d="M 23.5756,38.210458 C 13.380062,35.468724 11.250565,21.823597 20.129079,16.12627 c 7.842663,-5.032623 18.22736,0.768436 18.271223,10.206601 0.0368,7.91815 -7.397824,13.874787 -14.824702,11.877587 z m 4.677169,-6.871369 c 5.495534,-2.295615 3.801981,-10.545141 -2.077515,-10.119857 -5.437535,0.393316 -6.681012,7.723621 -1.701296,10.029155 1.29989,0.601829 2.486999,0.630322 3.778811,0.0907 z"
       id="path1093" /></g><g
     inkscape:groupmode="layer"
     id="layer2"
     inkscape:label="Réteg 2"><path
       id="path1118"
       style="display:inline;fill:#00fefe;stroke-width:0.264583"
       d="M 46.17806 27.209709 C 45.144361 27.201939 44.972803 27.546038 44.845325 28.508854 C 43.688492 37.246246 36.582884 44.169715 28.278377 44.651538 L 25.99738 44.784347 L 25.830981 46.375464 C 25.739493 47.250817 25.664583 48.26369 25.664583 48.625972 L 25.664583 49.284847 L 28.111979 49.138603 C 38.821399 48.498795 47.89565 39.961532 49.165474 29.331543 L 49.375281 27.574544 L 48.198608 27.413314 C 47.295673 27.289552 46.647923 27.21324 46.17806 27.209709 z " /></g><g
     inkscape:groupmode="layer"
     id="layer3"
     inkscape:label="Réteg 3"><path
       id="path1148"
       style="fill:#00fefe;stroke-width:0.264583"
       d="M 49.529793 25.850102 L 48.275606 26.021667 C 47.585998 26.116185 46.588807 26.19375 46.059204 26.19375 L 45.095955 26.19375 L 44.780212 28.512472 C 43.604291 37.146742 36.848489 43.953446 28.773437 44.639653 L 26.9875 44.791581 L 26.9875 46.174959 C 26.9875 46.936028 27.064863 47.946178 27.159583 48.419784 L 27.332182 49.28123 L 29.133105 49.113798 C 39.674879 48.134043 48.319914 39.074519 49.33859 27.939897 L 49.529793 25.850102 z " /></g><g
     inkscape:groupmode="layer"
     id="layer4"
     inkscape:label="Réteg 4"><path
       id="path1172"
       style="fill:#00fefe;stroke-width:0.264583"
       d="M 49.552531 24.671362 L 47.596578 24.791252 C 46.520856 24.857122 45.510136 24.950481 45.35072 24.998991 C 45.189731 25.047976 44.98523 26.068765 44.8908 27.294458 C 44.279814 35.225222 39.640197 41.319264 32.506026 43.746167 C 31.997583 43.925982 31.475606 44.080573 30.941264 44.208671 C 30.849987 44.231779 30.758846 44.25491 30.666862 44.276884 L 28.310417 44.83964 L 28.313517 46.033883 C 28.315118 46.69068 28.390824 47.679545 28.481982 48.231165 L 28.647864 49.234204 L 29.867944 49.057987 C 40.533701 47.520669 48.649893 38.445843 49.384583 27.23503 L 49.552531 24.671362 z " /></g><g
     inkscape:groupmode="layer"
     id="layer5"
     inkscape:label="Réteg 5"><path
       id="path1197"
       style="fill:#00fefe;stroke-width:0.264583"
       d="M 49.15824 23.376868 L 47.531982 23.60321 C 44.570345 24.015392 44.720799 23.916848 44.885632 25.335921 C 45.815299 33.339636 38.996461 42.567286 30.91956 44.235543 L 29.31604 44.566789 L 29.483988 45.897457 C 29.576312 46.629332 29.720502 47.615078 29.804382 48.088021 C 29.980412 49.08054 30.125526 49.105641 32.373218 48.535022 C 42.727975 45.906262 50.94323 34.16501 49.314819 24.32203 L 49.15824 23.376868 z " /></g><g
     inkscape:groupmode="layer"
     id="layer6"
     inkscape:label="Réteg 6"><path
       id="path1225"
       style="fill:#00fefe;stroke-width:0.264583"
       d="M 48.327283 22.350574 C 48.043053 22.356915 47.679304 22.420769 47.214172 22.503536 C 44.579674 22.972324 44.792215 22.665428 44.795715 26.000997 C 44.804779 34.545995 39.889702 41.445281 32.014583 43.942021 C 30.381986 44.45962 30.381804 44.460295 30.963485 47.262231 C 31.292241 48.845853 31.322543 48.858501 33.355587 48.260103 C 42.702831 45.508874 49.294403 36.437725 49.331873 26.273332 C 49.343785 23.04206 49.342388 22.327927 48.327283 22.350574 z " /></g><g
     inkscape:groupmode="layer"
     id="layer7"
     inkscape:label="Réteg 7"><path
       id="path1250"
       style="fill:#00fefe;stroke-width:0.264583"
       d="M 48.398596 21.210075 C 48.050626 21.201212 47.493619 21.352099 46.554264 21.566642 L 44.423645 22.052917 L 44.62725 23.52828 C 45.839377 32.314066 38.697017 43.805596 31.995463 43.91825 C 31.864506 43.959551 31.73276 43.999106 31.600138 44.037105 C 31.42941 44.28865 31.595426 45.027419 32.160828 46.972327 C 32.648797 48.650884 32.580832 48.631966 34.880042 47.713883 C 44.740611 43.776536 50.851633 33.236762 49.19493 23.025468 C 48.977067 21.682647 48.978548 21.224846 48.398596 21.210075 z " /></g><g
     inkscape:groupmode="layer"
     id="layer8"
     inkscape:label="Réteg 8"><path
       id="path1400"
       style="fill:#00fefe;stroke-width:0.264583"
       d="M 48.398079 19.878373 C 47.482478 19.857411 44.174657 21.335193 44.317708 21.786267 C 46.809489 29.643434 40.711689 41.480614 33.19849 43.483651 C 32.922845 43.595967 32.64279 43.700561 32.358748 43.797843 L 32.965946 45.597217 C 33.317901 46.63971 33.660657 47.6413 33.727657 47.822921 C 34.238826 49.208561 41.81594 44.076274 44.599345 40.459029 C 48.753431 35.060485 51.19473 22.531879 48.598584 19.935734 C 48.561538 19.898688 48.492797 19.880542 48.398079 19.878373 z " /></g><g
     inkscape:groupmode="layer"
     id="layer9"
     inkscape:label="Réteg 9"><path
       id="path1425"
       style="fill:#00fefe;stroke-width:0.264583"
       d="M 48.207393 19.005558 C 47.70493 19.010909 44.337389 20.133095 44.063977 20.406506 C 43.9789 20.491583 44.088543 21.322367 44.30789 22.252905 C 46.106619 29.883637 42.623801 37.961038 35.956462 42.034127 C 35.956142 42.034336 35.955748 42.034434 35.955428 42.034644 C 35.343502 42.435156 34.701114 42.797722 34.030481 43.116748 C 33.627428 43.38157 33.374924 43.629627 33.421216 43.746167 C 33.488314 43.915093 33.870564 44.866284 34.270776 45.86025 C 35.119921 47.969181 35.039226 47.960524 37.988379 46.273145 C 47.020673 41.105263 52.664019 26.143496 48.267855 19.020028 C 48.26159 19.009877 48.240891 19.005202 48.207393 19.005558 z " /></g><g
     inkscape:groupmode="layer"
     id="layer10"
     inkscape:label="Réteg 10"><path
       id="path1449"
       style="fill:#00fefe;stroke-width:0.264583"
       d="M 47.46532 18.143595 C 47.098609 18.157758 46.550563 18.385072 45.640108 18.771464 C 43.561535 19.653597 43.631546 19.456869 44.315641 22.489583 C 45.985058 29.890405 42.246594 38.547736 35.920288 42.056864 C 35.382466 42.406957 34.820871 42.727162 34.237703 43.014945 L 35.142558 45.026192 C 36.221386 47.42504 36.141167 47.398157 38.348564 46.103646 C 47.209074 40.907459 51.546122 29.563733 48.476111 19.614823 C 48.1498 18.557352 48.001281 18.122896 47.46532 18.143595 z " /></g><g
     inkscape:groupmode="layer"
     id="layer11"
     inkscape:label="Réteg 11"><path
       id="path1474"
       style="fill:#00fefe;stroke-width:0.264583"
       d="M 47.414677 16.982426 C 47.404571 16.980908 47.395157 16.981777 47.386255 16.985527 C 47.281638 17.029589 46.29791 17.466467 45.199825 17.956527 L 43.203048 18.847428 L 43.850037 20.866943 C 46.186678 28.160726 43.541993 36.39683 37.467997 40.917399 C 36.826888 41.44776 36.142137 41.934775 35.417993 42.370024 C 35.39246 42.388299 35.215644 42.512572 35.208704 42.517818 C 35.146598 42.56476 35.563319 43.493928 36.134745 44.582292 C 37.350313 46.897517 37.247322 46.86699 39.319564 45.512984 C 46.873474 40.577261 50.912141 30.736927 49.061088 21.775415 C 48.603952 19.562266 47.727955 17.029481 47.414677 16.982426 z " /></g><g
     inkscape:groupmode="layer"
     id="layer12"
     inkscape:label="Réteg 12"><path
       id="path1499"
       style="fill:#00fefe;stroke-width:0.264583"
       d="M 46.907731 16.317867 C 46.553453 16.331812 46.052501 16.622473 45.203959 17.05684 C 42.673935 18.351956 42.782058 18.166137 43.504321 19.98276 C 46.513884 27.552353 43.177931 37.789629 36.47581 41.678593 C 36.375979 41.749457 36.275093 41.819077 36.173503 41.887882 C 36.005768 42.115559 36.210608 42.570262 37.042183 44.023669 C 38.365997 46.337397 38.281394 46.30232 39.874052 45.206543 C 47.952342 39.648535 51.531788 28.702689 48.386194 19.17609 C 47.681223 17.041049 47.498195 16.294626 46.907731 16.317867 z " /></g><g
     inkscape:groupmode="layer"
     id="layer13"
     inkscape:label="Réteg 13"><path
       id="path1523"
       style="fill:#00fefe;stroke-width:0.264583"
       d="M 46.703092 15.345833 C 46.011375 15.345833 42.574414 17.591696 42.700753 17.961178 C 42.781112 18.19619 43.228926 19.460107 43.695524 20.769792 C 46.056606 27.397047 43.793617 35.525753 38.32686 40.158789 C 37.848569 40.611327 37.340844 41.038456 36.807056 41.437264 C 36.799075 41.55697 37.297372 42.462153 37.952722 43.513623 C 38.994102 45.18445 39.17046 45.649572 39.906091 45.194657 C 40.045023 45.096688 40.183306 44.997694 40.320536 44.897001 C 40.563744 44.706684 40.855862 44.462294 41.224874 44.163713 C 47.830617 38.818756 51.017028 29.368789 48.997526 21.111373 C 48.457971 18.905212 47.041441 15.345833 46.703092 15.345833 z " /></g><g
     inkscape:groupmode="layer"
     id="layer14"
     inkscape:label="Réteg 14"><path
       id="path1547"
       style="fill:#00fefe;stroke-width:0.264583"
       d="M 46.349626 14.552083 C 46.276223 14.552083 45.293155 15.093568 44.164746 15.755111 L 42.113192 16.957621 L 42.86405 18.614368 C 45.941497 25.401533 44.809729 32.962548 39.958801 38.383704 C 39.314374 39.189313 38.590728 39.947198 37.796143 40.638863 L 37.407019 41.040906 L 38.856543 42.996342 L 40.28488 44.922839 C 41.683347 43.900194 42.99228 42.737975 44.179732 41.461035 C 48.645886 36.059542 50.800995 27.513066 48.978923 20.769792 C 48.446467 18.799245 46.650456 14.552083 46.349626 14.552083 z " /></g><g
     inkscape:groupmode="layer"
     id="layer15"
     inkscape:label="Réteg 15"><path
       id="path1570"
       style="fill:#00fefe;stroke-width:0.264583"
       d="M 45.787386 13.992428 C 45.769019 13.992257 45.750512 13.9931 45.731576 13.994495 C 45.316975 14.02503 44.759302 14.428384 43.768388 15.086418 L 41.671875 16.478581 L 42.663029 18.491895 C 45.911803 25.089994 44.867594 32.699438 39.976888 38.361483 C 39.523852 38.929734 39.031382 39.474636 38.502559 39.98929 L 38.076746 40.455412 L 39.600167 42.320414 C 40.687824 43.651778 41.010297 44.192595 41.52253 43.963725 C 41.809716 43.7273 42.092234 43.48493 42.370024 43.236637 C 42.59105 43.006584 42.847358 42.731467 43.165841 42.399479 C 49.868326 35.412773 51.59404 25.238083 47.5387 16.61604 C 46.666181 14.760979 46.356766 13.99773 45.787386 13.992428 z " /></g><g
     inkscape:groupmode="layer"
     id="layer16"
     inkscape:label="Réteg 16"><path
       id="path1599"
       style="fill:#00fefe;stroke-width:0.264583"
       d="M 45.348136 13.415202 C 44.915723 13.441484 44.341197 13.847497 43.330688 14.571204 L 41.391272 15.959749 L 42.524019 18.232479 C 45.855761 24.917549 44.839256 32.646635 39.925728 38.424528 C 39.534838 38.910192 39.115689 39.37887 38.668958 39.825476 L 40.423889 41.773161 L 42.019657 43.543595 C 42.716471 42.941687 43.384224 42.303517 44.018502 41.633118 C 50.460401 33.792252 51.556539 24.121291 46.93512 15.326713 C 46.224747 13.974875 45.904098 13.381411 45.348136 13.415202 z " /></g><g
     inkscape:groupmode="layer"
     id="layer17"
     inkscape:label="Réteg 17"><path
       id="path1623"
       style="fill:#00fefe;stroke-width:0.264583"
       d="M 45.05203 12.331547 L 43.229919 13.754199 C 42.227581 14.536409 41.303508 15.264322 41.176815 15.372188 C 41.050119 15.480054 41.36914 16.263476 41.885299 17.113167 C 45.548392 23.143266 45.106512 31.547899 40.985095 36.960018 C 40.492701 37.722161 39.932867 38.454576 39.312846 39.144897 L 41.095166 40.959257 L 42.876453 42.772066 C 43.541605 42.14699 44.176055 41.487653 44.776078 40.798543 C 50.942621 32.773452 51.446703 20.290738 45.678349 13.111344 L 45.05203 12.331547 z " /></g><g
     inkscape:groupmode="layer"
     id="layer18"
     inkscape:label="Réteg 18"><path
       id="path1647"
       style="fill:#00fefe;stroke-width:0.264583"
       d="M 44.677893 12.052494 C 44.274418 12.047379 43.727658 12.537341 42.502315 13.515454 L 40.485901 15.125175 L 41.240894 16.227433 C 45.348537 22.224636 45.353572 30.362752 41.373702 36.328015 C 40.92007 37.101906 40.39897 37.850353 39.815658 38.560437 L 41.636218 40.27041 C 42.847915 41.408652 43.345954 41.942611 43.762703 41.899768 C 44.340815 41.305 44.891931 40.683441 45.413249 40.038383 C 45.413388 40.038187 45.413627 40.038062 45.413765 40.037866 C 51.05734 32.072322 51.299366 21.70919 45.993575 13.559896 C 45.341251 12.557975 45.081368 12.05761 44.677893 12.052494 z " /></g><g
     inkscape:groupmode="layer"
     id="layer19"
     inkscape:label="Réteg 19"><path
       id="path1711"
       style="fill:#00fefe;stroke-width:0.264583"
       d="M 44.408659 11.100614 L 43.437142 11.895398 C 42.902819 12.332382 41.943671 13.146718 41.306006 13.705107 L 40.146903 14.720549 L 41.225907 16.301331 C 45.091244 21.96405 45.305299 29.591312 41.887882 35.382853 C 41.451432 36.250672 40.931396 37.094285 40.334489 37.896912 L 42.256335 39.543323 C 43.546448 40.648519 44.077735 41.17465 44.504777 41.106018 C 45.01111 40.541903 45.494032 39.95691 45.950684 39.352637 C 51.243711 31.318272 51.215561 21.330648 45.868001 13.293762 L 44.408659 11.100614 z " /></g><g
     inkscape:groupmode="layer"
     id="layer20"
     inkscape:label="Réteg 20"><path
       id="path1735"
       style="fill:#00fefe;stroke-width:0.264583"
       d="M 43.898096 10.564213 L 41.825871 12.480892 L 39.753646 14.398088 L 40.749967 15.731856 C 44.681836 20.997145 45.306334 28.134151 42.481645 34.060453 C 42.087183 35.059308 41.581287 36.039139 40.975277 36.975004 C 40.912733 37.164302 40.895404 37.295102 40.936519 37.335706 C 41.04997 37.447742 41.976148 38.196278 42.994792 38.99917 C 44.143528 39.9046 44.741988 40.393402 45.270622 40.215633 C 45.756238 39.62503 46.216064 39.013969 46.648315 38.384737 C 46.894897 37.907976 47.173731 37.342108 47.512345 36.654093 C 51.420029 28.714262 50.45305 18.81206 45.114559 12.094869 L 43.898096 10.564213 z " /></g><g
     inkscape:groupmode="layer"
     id="layer21"
     inkscape:label="Réteg 21"><path
       id="path1759"
       style="fill:#00fefe;stroke-width:0.264583"
       d="M 43.572534 10.017993 L 41.511678 12.066447 L 39.451339 14.114901 L 40.195996 15.061096 C 44.349246 20.33586 45.291625 27.093025 42.793254 33.194356 C 42.487277 34.12945 42.083716 35.054338 41.589709 35.949227 C 41.433493 36.39378 41.370316 36.697053 41.437264 36.757446 C 41.566296 36.873849 42.553598 37.5809 43.631445 38.32841 C 44.922492 39.223779 45.435238 39.632562 45.797721 39.551074 C 46.301833 38.896872 46.775484 38.219999 47.214689 37.522774 C 51.539227 29.650375 50.702498 19.329031 45.055131 11.954309 L 43.572534 10.017993 z " /></g><g
     inkscape:groupmode="layer"
     id="layer22"
     inkscape:label="Réteg 22"><path
       id="path1491"
       style="fill:#00fefe;stroke-width:0.264583"
       d="M 43.10848 9.6800293 L 41.076562 11.711947 L 39.044645 13.744381 L 39.637891 14.478703 L 40.231653 15.213542 L 41.273966 16.762284 L 42.315763 18.311544 L 42.87852 19.804993 L 43.440759 21.298958 L 43.808179 23.01875 L 44.176115 24.738542 L 44.180766 26.271265 L 44.185417 27.803471 L 43.774589 29.84314 L 43.363245 31.882292 L 42.886788 32.898767 C 42.577095 33.916184 42.15127 34.924061 41.618648 35.897034 L 41.729753 35.99987 L 41.936458 36.191589 L 44.053125 37.53776 L 46.169792 38.884448 L 46.294332 38.887549 C 46.683853 38.348028 47.051862 37.793821 47.39814 37.227185 L 47.458085 37.107812 L 48.356222 35.321875 L 49.080725 33.072917 L 49.805229 30.823958 L 49.939071 27.49703 L 50.072913 24.170618 L 49.622294 21.944914 L 49.171159 19.719727 L 48.368624 17.6382 L 47.565572 15.556673 L 46.032849 13.268441 L 44.499609 10.980208 L 43.804045 10.330119 L 43.10848 9.6800293 z " /></g><g
     inkscape:groupmode="layer"
     id="layer23"
     inkscape:label="Réteg 23"><path
       id="path1519"
       style="fill:#00fefe;stroke-width:0.264583"
       d="M 42.605668 9.1642985 L 42.535905 9.2785034 L 42.465625 9.3927083 L 40.521558 11.441679 L 38.57749 13.490649 L 39.75933 14.805298 L 40.94117 16.119946 L 42.011389 18.180286 L 43.081608 20.240625 L 43.476416 21.828125 L 43.871224 23.415625 L 44.04434 24.912691 L 44.217456 26.409241 L 43.9198 28.616858 L 43.621627 30.823958 L 43.094527 32.143774 C 42.835817 33.194101 42.450571 34.241358 41.950411 35.257279 L 44.285152 36.645825 L 46.698958 38.081913 L 46.847786 38.088114 C 47.245948 37.491142 47.618924 36.878843 47.964514 36.252051 L 48.624939 34.792708 L 49.165474 33.036743 L 49.70601 31.280778 L 49.982996 28.793591 L 50.260498 26.306921 L 50.016069 24.163383 L 49.771639 22.020361 L 49.338074 20.336743 L 48.905025 18.653125 L 47.873564 16.445508 L 46.842619 14.237891 L 45.672148 12.609049 L 44.501676 10.980208 L 43.553931 10.072253 L 42.605668 9.1642985 z " /></g><g
     inkscape:groupmode="layer"
     id="layer24"
     inkscape:label="Réteg 24"><path
       id="path1543"
       style="fill:#00fefe;stroke-width:0.264583"
       d="M 42.400513 8.5989583 L 41.219189 9.921875 L 40.037349 11.244792 L 39.176937 12.232845 L 38.316524 13.221415 L 39.470976 14.540715 L 40.62491 15.860014 L 41.497725 17.300236 L 42.37054 18.740458 L 43.07489 20.681425 L 43.778723 22.621875 L 43.783374 26.326042 L 43.788542 30.030208 L 43.227336 31.549495 C 43.020874 32.579596 42.690632 33.611858 42.24755 34.619592 L 44.652055 35.89755 L 47.228125 37.266459 L 47.364034 37.283512 C 47.724562 36.696964 48.060425 36.096263 48.370691 35.483622 L 48.958769 34.172591 L 49.514807 32.1014 L 50.071362 30.030208 L 50.0941 26.590625 L 50.117354 23.151042 L 49.540129 20.84679 L 48.962903 18.542537 L 48.18724 16.831531 L 47.41106 15.120524 L 46.228186 13.31495 L 45.045312 11.509375 L 43.722913 10.054167 L 42.400513 8.5989583 z " /></g><g
     inkscape:groupmode="layer"
     id="layer25"
     inkscape:label="Réteg 25"><path
       id="path1654"
       style="fill:#00fefe;stroke-width:0.264583"
       d="M 41.936458 8.2341227 L 39.924178 10.638627 L 37.912415 13.043132 L 38.96403 14.126786 L 40.015645 15.210441 L 40.785624 16.329753 L 41.555603 17.448547 L 42.3354 19.098059 L 43.115198 20.747054 L 43.551864 22.709208 L 43.988529 24.671362 L 43.852104 27.218494 L 43.715678 29.765625 L 43.335856 30.933512 C 43.189566 31.893925 42.933417 32.860762 42.576213 33.812406 L 45.090788 35.110002 L 47.757292 36.485111 L 47.830672 36.491313 C 48.17276 35.886621 48.489459 35.268559 48.778418 34.638713 L 49.207849 33.469792 L 49.667769 31.75 L 50.127173 30.030208 L 50.11012 26.19375 L 50.09255 22.357292 L 49.38665 20.033919 L 48.68075 17.71003 L 47.653939 15.668294 L 46.627128 13.626042 L 45.426685 12.038542 L 44.226241 10.451042 L 43.081091 9.3425822 L 41.936458 8.2341227 z " /></g><g
     inkscape:groupmode="layer"
     id="layer26"
     inkscape:label="Réteg 26"><path
       id="path1678"
       style="fill:#00fefe;stroke-width:0.264583"
       d="M 41.586092 7.8067586 L 41.06261 8.4677002 L 40.538611 9.128125 L 39.071517 10.964189 L 37.603906 12.800252 L 39.156266 14.459583 L 40.708626 16.118913 L 41.631567 17.782894 L 42.555025 19.446875 L 43.163257 21.43125 L 43.771488 23.415625 L 43.769938 26.326042 L 43.767871 29.236458 L 43.39425 30.500464 C 43.288931 31.393473 43.08731 32.294811 42.795837 33.187122 L 45.24375 34.283179 L 47.757292 35.409208 L 48.168119 35.431429 L 48.391361 35.443831 C 48.599332 35.03131 48.795249 34.613248 48.978923 34.190161 L 49.144287 33.668229 L 49.709627 31.882292 L 49.99023 30.312362 L 50.270833 28.742432 L 50.270833 26.266097 L 50.270833 23.790279 L 49.851221 21.75061 L 49.432125 19.711458 L 48.6854 17.784444 L 47.939193 15.856913 L 46.81213 13.959871 L 45.685067 12.062313 L 43.635579 9.9347941 L 41.586092 7.8067586 z " /></g><g
     inkscape:groupmode="layer"
     id="layer27"
     inkscape:label="Réteg 27"><path
       id="path1702"
       style="fill:#00fefe;stroke-width:0.264583"
       d="M 41.049174 7.6729167 L 39.365556 9.8557292 L 37.681938 12.038542 L 37.463346 12.393559 L 37.244755 12.748576 L 38.202319 13.538192 L 39.159884 14.327291 L 40.354643 16.001607 L 41.549402 17.675924 L 42.302844 19.355408 L 43.056287 21.034375 L 43.403552 22.489583 L 43.750301 23.944792 L 43.742033 26.458333 L 43.733248 28.971875 L 43.436625 30.080334 C 43.369124 30.884073 43.222256 31.696478 43.000476 32.505509 L 43.011328 32.516361 L 45.648893 33.56591 L 48.286458 34.615458 L 48.596 34.637679 L 48.772734 34.650598 C 48.968647 34.224179 49.152072 33.792279 49.322054 33.355587 L 49.70756 32.146875 L 50.00625 30.633272 L 50.30494 29.120186 L 50.298739 26.135356 L 50.292537 23.151042 L 49.637797 20.581173 L 48.983573 18.01182 L 47.866846 15.758211 L 46.750118 13.504602 L 45.068567 11.402922 L 43.387016 9.301241 L 42.359172 8.4873372 L 41.331327 7.6729167 L 41.190251 7.6729167 L 41.049174 7.6729167 z " /></g><g
     inkscape:groupmode="layer"
     id="layer28"
     inkscape:label="Réteg 28"><path
       id="path1726"
       style="fill:#00fefe;stroke-width:0.264583"
       d="M 40.798027 7.1406494 L 39.106657 9.4573039 L 37.414771 11.773958 L 37.208065 12.112439 L 37.000842 12.450403 L 38.961963 14.535547 L 40.923083 16.620174 L 41.881681 18.562691 L 42.840279 20.505208 L 43.244389 22.225 L 43.648499 23.944792 L 43.647982 26.326042 L 43.647982 28.707292 L 43.473315 29.449365 C 43.448607 30.231496 43.346702 31.025287 43.171008 31.819246 L 45.905208 32.790247 L 48.815625 33.823775 L 49.080208 33.760213 L 49.170125 33.738509 C 49.390018 33.201757 49.589962 32.657233 49.768538 32.106051 L 49.833134 31.863171 L 50.321476 30.030208 L 50.346281 26.590625 L 50.371086 23.151042 L 49.783525 20.769792 L 49.195447 18.388542 L 48.028076 15.983521 L 46.860706 13.578499 L 45.750696 12.147062 L 44.640686 10.715625 L 43.685706 9.7006999 L 42.730208 8.6862915 L 41.764376 7.9137288 L 40.798027 7.1406494 z " /></g><g
     inkscape:groupmode="layer"
     id="layer29"
     inkscape:label="Réteg 29"><path
       id="path1750"
       style="fill:#00fefe;stroke-width:0.264583"
       d="M 40.837817 6.8791667 L 40.593388 6.889502 L 40.348958 6.900354 L 38.479822 9.5684082 L 36.610168 12.236462 L 38.636918 14.263212 L 40.663668 16.289962 L 41.767993 18.529618 L 42.872319 20.769792 L 43.289347 22.754167 L 43.705859 24.738542 L 43.559098 27.252083 L 43.473315 28.71866 C 43.498898 29.521653 43.439008 30.341081 43.298649 31.164506 L 46.348592 32.047139 L 49.4745 32.951994 C 49.79818 32.072316 50.06796 31.174064 50.278585 30.260685 L 50.439299 27.648958 L 50.602079 25.003125 L 50.292021 23.020817 L 49.981445 21.039026 L 49.189246 18.655192 L 48.396529 16.271875 L 47.151127 14.158309 L 45.905208 12.044226 L 43.371513 9.4619548 L 40.837817 6.8791667 z " /></g><g
     inkscape:groupmode="layer"
     id="layer30"
     inkscape:label="Réteg 30"><path
       id="path1774"
       style="fill:#00fefe;stroke-width:0.264583"
       d="M 39.963969 6.6145833 L 38.089665 9.4082113 L 36.215361 12.201322 L 36.959501 12.760461 L 37.703125 13.320117 L 39.082369 14.767057 L 40.461613 16.214514 L 41.503927 18.227828 L 42.54624 20.240625 L 42.965853 21.667411 L 43.385465 23.094198 L 43.544112 25.106995 L 43.702759 27.119792 L 43.467631 28.553296 C 43.497365 29.189749 43.472164 29.837307 43.395801 30.489612 L 46.217851 31.2229 L 49.080208 31.966524 L 49.519458 31.990812 L 49.800061 32.005798 C 49.947719 31.542693 50.07951 31.074705 50.196419 30.602783 L 50.280652 30.103589 L 50.603113 28.192078 L 50.46307 25.142651 L 50.323027 22.092708 L 49.633146 19.765202 L 48.943266 17.437695 L 48.116443 15.796452 L 47.290137 14.155208 L 46.480884 12.964583 L 45.671631 11.773958 L 44.730086 10.624158 L 43.788542 9.4738403 L 42.077535 8.0444702 L 40.366012 6.6145833 L 40.16499 6.6145833 L 39.963969 6.6145833 z " /></g><g
     inkscape:groupmode="layer"
     id="layer31"
     inkscape:label="Réteg 31"><path
       id="path1798"
       style="fill:#00fefe;stroke-width:0.264583"
       d="M 39.688017 6.2611165 L 39.592932 6.3717041 L 39.497331 6.4822917 L 37.753251 9.1860026 L 36.009688 11.889714 L 38.33151 14.213086 L 40.653333 16.536458 L 41.621749 18.520833 L 42.589648 20.505208 L 43.012362 22.092708 L 43.434558 23.680208 L 43.432491 26.742554 L 43.431974 28.046867 C 43.486127 28.625391 43.493069 29.215157 43.456262 29.810583 L 46.65245 30.487028 L 49.873958 31.169157 L 50.040873 31.194995 C 50.260155 30.404927 50.436324 29.602626 50.564355 28.790491 L 50.556604 26.000997 L 50.548853 23.139673 L 49.910132 20.631816 L 49.270894 18.123958 L 48.598584 16.610872 L 47.926274 15.098303 L 46.685006 13.171289 L 45.443738 11.244792 L 43.293481 9.128125 L 41.142708 7.0114583 L 40.415621 6.6362874 L 39.688017 6.2611165 z " /></g><g
     inkscape:groupmode="layer"
     id="layer32"
     inkscape:label="Réteg 32"><path
       id="path1888"
       style="fill:#00fefe;stroke-width:0.264583"
       d="M 39.219312 6.0854167 L 37.459212 8.8997152 L 35.698596 11.714014 L 35.775077 11.913485 L 35.851042 12.112956 L 37.236487 13.203845 L 38.622449 14.294218 L 39.723674 15.68018 L 40.825415 17.065625 L 41.703398 18.917708 L 42.58138 20.769792 L 42.986523 22.346956 L 43.391667 23.923604 L 43.391667 26.501742 L 43.391667 26.975098 C 43.392566 26.988903 43.393901 27.002627 43.394767 27.016439 L 43.403552 27.773499 C 43.455666 28.208248 43.479608 28.65031 43.479 29.096415 L 44.251562 29.236458 L 45.111458 29.392521 L 47.095833 29.748572 L 49.080208 30.105139 L 49.784041 30.134078 L 50.302356 30.154749 C 50.450068 29.499165 50.568338 28.836384 50.653239 28.167273 L 50.668742 27.979687 L 50.802067 26.3679 C 50.810127 26.156202 50.815673 25.943804 50.817053 25.731246 L 50.821187 25.598954 L 50.557121 23.708114 L 50.265666 21.619352 L 49.84967 20.003947 L 49.434192 18.388542 L 48.423918 16.225883 L 47.413643 14.063741 L 46.543412 12.7863 L 45.673181 11.509375 L 43.936853 9.6986328 L 42.201042 7.8873739 L 40.97476 6.9866536 L 39.748995 6.0854167 L 39.483895 6.0854167 L 39.219312 6.0854167 z " /></g><g
     inkscape:groupmode="layer"
     id="layer33"
     inkscape:label="Réteg 33"><path
       id="path1912"
       style="fill:#00fefe;stroke-width:0.264583"
       d="M 39.003304 5.5908732 L 37.131584 8.7085124 L 35.259347 11.825635 L 36.921261 13.055534 L 38.582658 14.285433 L 39.834778 15.940112 L 41.087415 17.594792 L 41.710116 18.941479 L 42.333333 20.288167 L 42.8625 22.357292 L 43.391667 24.426416 L 43.391667 26.455233 L 43.391667 26.975098 C 43.392566 26.988903 43.393901 27.002627 43.394767 27.016439 L 43.403552 27.773499 C 43.432074 28.011436 43.452963 28.251701 43.465564 28.493351 L 46.632812 28.890226 L 49.873958 29.295886 L 50.19952 29.332576 L 50.465653 29.362032 C 50.640448 28.4218 50.752157 27.46763 50.795349 26.503809 L 50.721969 25.165389 L 50.56849 22.357292 L 49.874475 19.976042 L 49.180977 17.594792 L 48.264754 15.685347 L 47.348531 13.775387 L 45.739327 11.6396 L 44.130123 9.5043294 L 42.329716 7.9933105 L 40.529309 6.4822917 L 39.766565 6.0368408 L 39.003304 5.5908732 z " /></g><g
     inkscape:groupmode="layer"
     id="layer34"
     inkscape:label="Réteg 34"><path
       id="path1936"
       style="fill:#00fefe;stroke-width:0.264583"
       d="M 38.780062 5.2994181 L 38.589376 5.4942383 L 38.39869 5.6885417 L 36.674247 8.7157471 L 34.949288 11.742436 L 36.201925 12.585795 L 37.454045 13.429154 L 38.967131 15.06368 L 40.480216 16.697689 L 41.509094 18.866032 L 42.537455 21.034375 L 42.842863 22.316984 L 43.147754 23.599076 L 43.307434 25.673368 L 43.467631 27.747144 L 45.215328 27.910958 L 46.963542 28.074255 L 47.492708 28.156421 L 48.021875 28.238586 L 49.447111 28.274243 L 50.634635 28.304215 C 50.711885 27.726216 50.76442 27.143712 50.792249 26.557552 L 50.730237 25.201562 L 50.58761 22.092708 L 49.898246 19.767269 L 49.208883 17.442346 L 48.253902 15.533936 L 47.298405 13.626042 L 45.994092 11.857157 L 44.689779 10.088273 L 43.087292 8.6046427 L 41.484806 7.1210124 L 40.132434 6.2099569 L 38.780062 5.2994181 z " /></g><g
     inkscape:groupmode="layer"
     id="layer35"
     inkscape:label="Réteg 35"><path
       id="path1960"
       style="fill:#00fefe;stroke-width:0.264583"
       d="M 38.367684 4.935616 L 38.2788 5.0477539 L 38.1894 5.159375 L 37.184294 7.0114583 L 36.179187 8.8635417 L 35.419543 10.219531 L 34.659383 11.576038 L 36.495447 12.915491 L 38.33151 14.254944 L 39.490096 15.73134 L 40.649198 17.208252 L 41.46827 18.85673 L 42.287341 20.505208 L 42.682666 22.092708 L 43.078507 23.680208 L 43.255241 25.457361 L 43.431974 27.233997 L 46.1238 27.319779 L 48.815625 27.405046 L 49.807812 27.460856 L 50.726103 27.512533 C 50.760854 27.145239 50.785197 26.776473 50.8 26.40614 L 50.8 25.520923 L 50.8 23.525696 L 50.380387 21.486027 L 49.961292 19.446875 L 49.214567 17.519861 L 48.468359 15.59233 L 47.344397 13.700972 L 46.220951 11.809098 L 44.117204 9.6180176 L 42.013973 7.4269368 L 40.190828 6.1815348 L 38.367684 4.935616 z " /></g><g
     inkscape:groupmode="layer"
     id="layer36"
     inkscape:label="Réteg 36"><path
       id="path1984"
       style="fill:#00fefe;stroke-width:0.264583"
       d="M 37.869523 4.7625 L 36.123893 8.1359375 L 34.377747 11.509375 L 34.822164 11.773958 L 35.266581 12.038542 L 36.800854 13.248804 L 38.335128 14.459066 L 39.396562 15.743225 L 40.457479 17.027384 L 41.269832 18.550806 L 42.081669 20.074744 L 42.604635 22.11803 L 43.127083 24.161833 L 43.127083 24.903389 C 43.224738 25.415894 43.298981 25.934585 43.349292 26.458333 L 47.126839 26.458333 L 50.797416 26.458333 C 50.807706 26.216564 50.815475 25.974147 50.817053 25.731246 L 50.844958 24.882202 C 50.853514 24.432747 50.848807 23.987111 50.832039 23.545333 L 50.765377 22.886458 L 50.25068 20.670056 L 49.735465 18.453654 L 48.713822 16.272909 L 47.691663 14.092163 L 46.55013 12.411129 L 45.408081 10.729578 L 43.67227 8.9979004 L 41.936458 7.2662231 L 40.048718 6.01462 L 38.160978 4.7625 L 38.015251 4.7625 L 37.869523 4.7625 z " /></g><g
     inkscape:groupmode="layer"
     id="layer37"
     inkscape:label="Réteg 37"><path
       id="path2008"
       style="fill:#00fefe;stroke-width:0.264583"
       d="M 37.593054 4.4607096 L 35.846391 7.9468018 L 34.099211 11.433411 L 34.181376 11.494389 L 34.263542 11.555884 L 35.78748 12.552205 L 37.311418 13.549044 L 38.742338 15.129826 L 40.173258 16.711125 L 41.128239 18.528585 L 42.083736 20.346045 L 42.605151 22.38623 L 43.127083 24.426416 L 43.127083 24.903389 C 43.183242 25.198118 43.232163 25.494625 43.272811 25.793258 L 47.029687 25.705924 L 50.820671 25.617558 L 50.844958 24.882202 C 50.855008 24.354291 50.845467 23.832118 50.820671 23.314856 L 50.808785 23.235274 L 50.488908 21.046777 L 49.819698 18.92391 L 49.151005 16.801042 L 48.483346 15.478125 L 47.816203 14.155208 L 46.812646 12.674679 L 45.80909 11.194666 L 44.426229 9.6815796 L 43.043368 8.1684937 L 41.563871 7.0378133 L 40.084375 5.9076497 L 38.838973 5.1841797 L 37.593054 4.4607096 z " /></g><g
     inkscape:groupmode="layer"
     id="layer38"
     inkscape:label="Réteg 38"><path
       id="path2032"
       style="fill:#00fefe;stroke-width:0.264583"
       d="M 37.282479 4.1692546 L 37.168791 4.2824259 L 37.055103 4.3961141 L 35.460885 7.7695516 L 33.866667 11.142472 L 33.866667 11.342977 L 33.866667 11.543481 L 34.726562 11.954309 L 35.586458 12.365137 L 37.100578 13.599687 L 38.614697 14.834237 L 39.813074 16.513204 L 41.01145 18.192171 L 41.634668 19.613273 L 42.257886 21.034375 L 42.575179 22.489583 L 42.789119 23.468852 C 42.947867 24.033316 43.078142 24.607361 43.17876 25.18916 L 45.850948 25.021729 L 48.551042 24.852747 L 49.829 24.701851 L 50.846509 24.581445 C 50.852855 23.57351 50.795751 22.584265 50.67701 21.617285 L 50.105986 19.634977 L 49.473466 17.442346 L 48.514351 15.533936 L 47.555237 13.626042 L 46.745467 12.435417 L 45.935697 11.244792 L 44.332694 9.56014 L 42.730208 7.8754883 L 41.275 6.7592773 L 39.819792 5.6430664 L 38.551135 4.9061605 L 37.282479 4.1692546 z " /></g><g
     inkscape:groupmode="layer"
     id="layer39"
     inkscape:label="Réteg 39"><path
       id="path2056"
       style="fill:#00fefe;stroke-width:0.264583"
       d="M 36.757446 3.9480794 L 36.136296 5.3474772 L 35.515145 6.746875 L 34.467147 9.0113363 L 33.418632 11.275281 L 34.993213 12.186336 L 36.567277 13.096875 L 38.357865 14.980481 L 40.148971 16.86357 L 41.203687 18.970935 L 42.258403 21.077783 L 42.611869 22.858036 L 42.622205 22.910746 C 42.799601 23.468746 42.948967 24.036874 43.069206 24.613485 L 43.509489 24.509615 L 44.053125 24.381974 L 47.562988 24.054862 L 50.837724 23.749455 C 50.814925 22.96819 50.752975 22.199214 50.654272 21.443652 L 50.23466 19.84375 L 49.714278 17.859375 L 48.670414 15.694132 L 47.62655 13.52889 L 46.038534 11.420492 L 44.45 9.3126099 L 42.928646 8.0093302 L 41.407292 6.7060506 L 40.216667 5.9029989 L 39.026042 5.0994303 L 37.891744 4.5237549 L 36.757446 3.9480794 z " /></g><g
     inkscape:groupmode="layer"
     id="layer40"
     inkscape:label="Réteg 40"><path
       id="path2080"
       style="fill:#00fefe;stroke-width:0.264583"
       d="M 36.377108 3.696932 L 34.745683 7.4677612 L 33.114258 11.238074 L 34.614425 12.034924 L 36.115108 12.832292 L 37.991479 14.684375 L 39.868368 16.536458 L 40.81508 18.25625 L 41.762309 19.976042 L 42.197941 21.563542 L 42.353487 22.130432 C 42.557528 22.680508 42.7348 23.241346 42.882654 23.811983 L 43.317253 23.806299 L 43.788542 23.800614 L 47.228125 23.283333 L 50.667708 22.766569 L 50.787598 22.762435 C 50.734503 22.024964 50.647197 21.298794 50.526115 20.585824 L 50.26825 19.446875 L 49.837268 18.25625 L 49.406287 17.065625 L 48.49058 15.213542 L 47.574874 13.361458 L 46.248857 11.57087 L 44.922323 9.7807983 L 43.104346 8.1214681 L 41.286369 6.4621379 L 39.230164 5.2265544 L 37.173958 3.9904541 L 36.775533 3.843693 L 36.377108 3.696932 z " /></g><g
     inkscape:groupmode="layer"
     id="layer41"
     inkscape:label="Réteg 41"><path
       id="path2107"
       style="fill:#00fefe;stroke-width:0.264583"
       d="M 35.974548 3.4276978 L 35.734253 4.0286947 L 35.493441 4.6302083 L 34.151921 7.9168294 L 32.810917 11.202934 L 32.875513 11.224121 L 32.940625 11.244792 L 34.13125 11.873694 L 35.321875 12.502596 L 36.719206 13.56558 L 38.11602 14.629081 L 39.19399 15.979386 L 40.27196 17.330208 L 41.015584 18.799369 L 41.759208 20.26853 L 42.144714 21.595064 C 42.372871 22.153284 42.572417 22.723771 42.742094 23.305037 L 43.218551 23.189799 L 43.788542 23.051823 L 47.095833 22.473564 L 50.403125 21.894788 L 50.637736 21.679297 L 50.680111 21.64054 C 50.611772 21.079222 50.522701 20.525236 50.414494 19.979142 L 50.153528 19.132682 L 49.433675 16.801042 L 48.397563 14.863175 L 47.36145 12.925309 L 46.201314 11.423592 L 45.041178 9.921875 L 43.356527 8.3193888 L 41.671875 6.7163859 L 40.48125 5.907133 L 39.290625 5.0973633 L 37.632845 4.2627889 L 35.974548 3.4276978 z " /></g><g
     inkscape:groupmode="layer"
     id="layer42"
     inkscape:label="Réteg 42"><path
       id="path2217"
       style="fill:#00fefe;stroke-width:0.264583"
       d="M 35.528581 3.2163411 L 34.181893 6.7013997 L 32.834688 10.186458 L 32.670874 10.624158 L 32.506543 11.061857 L 34.177242 11.947074 L 35.847424 12.832292 L 37.702091 14.58929 L 39.556242 16.346806 L 40.526725 17.987016 L 41.496692 19.627226 L 41.94576 21.125842 C 42.162281 21.61469 42.356787 22.113763 42.528153 22.621875 L 46.573385 21.72994 L 50.56849 20.848857 C 50.418453 19.897572 50.21125 18.968363 49.947856 18.06453 L 48.943783 15.938562 L 47.911804 13.753166 L 47.057076 12.498979 L 46.202348 11.244792 L 45.127995 9.957015 L 44.053125 8.669755 L 42.136446 7.1266968 L 40.21925 5.5836385 L 38.564571 4.6606974 L 36.909375 3.7372396 L 36.218978 3.4767904 L 35.528581 3.2163411 z " /></g><g
     inkscape:groupmode="layer"
     id="layer43"
     inkscape:label="Réteg 43"><path
       id="path2329"
       style="fill:#00fefe;stroke-width:0.264583"
       d="M 35.006132 3.175 L 33.642391 6.9489299 L 32.279167 10.72286 L 32.279167 10.931116 L 32.279167 11.139372 L 33.256368 11.547616 L 34.234086 11.956376 L 35.738904 12.978019 L 37.243722 14.000179 L 38.61263 15.532902 L 39.981539 17.065625 L 41.024886 19.146635 L 42.06875 21.228162 L 42.06875 21.410579 C 42.145515 21.592474 42.218756 21.775848 42.289408 21.960417 L 42.318864 21.960417 L 42.568978 21.960417 L 46.450911 20.915519 L 50.332328 19.870105 L 50.382971 19.819979 C 50.251638 19.181385 50.09254 18.554368 49.909098 17.93844 L 49.75717 17.543632 L 48.949467 15.449703 L 48.002755 13.876156 L 47.056559 12.303125 L 45.978072 10.904244 L 44.900102 9.505363 L 43.443343 8.1741781 L 41.986584 6.8429932 L 40.506571 5.8389201 L 39.026042 4.834847 L 37.380147 4.0049235 L 35.733736 3.175 L 35.369934 3.175 L 35.006132 3.175 z " /></g><g
     inkscape:groupmode="layer"
     id="layer44"
     inkscape:label="Réteg 44"><path
       id="path2353"
       style="fill:#00fefe;stroke-width:0.264583"
       d="M 34.51779 2.9104167 L 33.17937 6.9453125 L 31.840951 10.980208 L 33.501831 11.738818 L 35.162195 12.497945 L 36.861833 13.89941 L 38.560954 15.301392 L 39.910742 17.319356 L 41.260531 19.337321 L 41.542167 20.277315 C 41.72542 20.638045 41.896516 21.00556 42.054797 21.37854 L 42.454773 21.278288 L 43.024764 21.135144 L 46.581653 20.004464 L 50.138542 18.873783 L 50.095133 18.597314 C 49.975582 18.145857 49.841774 17.700622 49.695675 17.261479 L 48.944816 15.673979 L 47.911804 13.488582 L 47.06276 12.255066 L 46.213717 11.021033 L 44.358016 9.0671468 L 42.501799 7.1132609 L 40.367045 5.6962931 L 38.232292 4.2793254 L 36.677865 3.5951294 L 35.123954 2.9104167 L 34.820614 2.9104167 L 34.51779 2.9104167 z " /></g><g
     inkscape:groupmode="layer"
     id="layer45"
     inkscape:label="Réteg 45"><path
       id="path2377"
       style="fill:#00fefe;stroke-width:0.264583"
       d="M 34.084741 2.778125 L 32.935457 6.3257121 L 31.78669 9.8727824 L 31.643547 10.442257 L 31.500403 11.011731 L 32.485356 11.35848 L 33.469792 11.705745 L 34.97771 12.6106 L 36.486145 13.515971 L 38.074679 15.119491 L 39.663729 16.723527 L 40.667802 18.67948 L 40.868823 19.071187 C 41.17777 19.577938 41.461797 20.099791 41.718901 20.635433 L 41.961263 20.636466 L 42.250651 20.6375 L 46.056104 19.29908 L 49.861039 17.960144 L 49.903414 17.918286 C 49.717748 17.297017 49.505803 16.687939 49.269861 16.091524 L 49.236788 16.018144 L 48.435803 14.25236 L 47.259131 12.483993 L 46.081942 10.715625 L 44.141492 8.775175 L 42.201042 6.8347249 L 40.44766 5.6673543 L 38.694279 4.5005005 L 37.008077 3.7129517 L 35.321875 2.9254028 L 34.703308 2.8515055 L 34.084741 2.778125 z " /></g><g
     inkscape:groupmode="layer"
     id="layer46"
     inkscape:label="Réteg 46"><path
       id="path2401"
       style="fill:#00fefe;stroke-width:0.264583"
       d="M 33.815507 2.344043 L 33.684249 2.4753011 L 33.552991 2.607076 L 32.389754 6.5288005 L 31.227035 10.451042 L 31.223934 10.719759 L 31.220833 10.988477 L 32.490007 11.439095 L 33.75918 11.889714 L 35.334277 12.907739 L 36.909375 13.925765 L 38.410059 15.584062 L 39.910225 17.241842 L 40.6585 18.674312 L 40.659017 18.674312 L 40.849703 19.040181 C 41.063245 19.388849 41.265113 19.744583 41.454317 20.1073 L 41.601595 20.107817 L 41.795382 20.108333 L 45.17347 18.756995 L 48.551042 17.406173 L 49.152555 17.174146 L 49.607825 16.998446 C 49.429542 16.483904 49.232559 15.979054 49.01923 15.482776 L 48.918978 15.283822 L 48.083887 13.626042 L 47.281868 12.435417 L 46.47985 11.244792 L 45.086137 9.6371379 L 43.69294 8.0300008 L 42.285274 6.9468628 L 40.878125 5.8637248 L 39.158333 4.8250285 L 37.438542 3.786849 L 35.627283 3.065446 L 33.815507 2.344043 z " /></g><g
     inkscape:groupmode="layer"
     id="layer47"
     inkscape:label="Réteg 47"><path
       id="path2425"
       style="fill:#00fefe;stroke-width:0.264583"
       d="M 33.081185 2.1616252 L 32.787663 3.2633667 L 32.494657 4.365625 L 31.624426 7.540625 L 30.753678 10.715625 L 31.317985 10.95437 L 31.882292 11.193115 L 33.866667 12.142928 L 35.851042 13.092224 L 37.600289 14.8146 L 39.349536 16.536458 L 40.214083 18.073315 C 40.214302 18.073627 40.21438 18.074038 40.2146 18.074349 C 40.556136 18.558976 40.874028 19.0599 41.165963 19.576066 L 41.507544 19.446358 L 41.936458 19.282544 L 45.574479 17.659387 L 49.2125 16.035714 L 49.2125 15.94528 C 48.977579 15.363363 48.720217 14.793136 48.439937 14.236857 L 47.955729 13.414168 L 46.932536 11.67474 C 46.803655 11.484829 46.671002 11.297844 46.536694 11.111983 L 44.45 8.9761963 L 42.201042 6.6740112 L 40.291597 5.446696 L 38.382153 4.2193807 L 36.661328 3.4473348 L 34.94102 2.6752889 L 34.010844 2.418457 L 33.081185 2.1616252 z " /></g><g
     inkscape:groupmode="layer"
     id="layer48"
     inkscape:label="Réteg 48"><path
       id="path2547"
       style="fill:#00fefe;stroke-width:0.264583"
       d="M 32.567004 1.8913574 L 32.431612 2.3347412 L 32.296737 2.778125 L 31.36191 6.7070841 L 30.427083 10.636043 L 30.427083 10.721309 L 30.427083 10.807092 L 31.419271 11.123869 L 32.411458 11.441162 L 34.206181 12.372371 L 36.000387 13.303581 L 37.541378 14.788245 L 39.082369 16.272909 L 39.930896 17.652153 L 40.044067 17.835604 C 40.321059 18.215357 40.583194 18.60582 40.829549 19.006075 L 44.855143 16.998446 L 48.815108 15.022856 C 48.394298 14.101127 47.914361 13.213185 47.380054 12.362553 L 46.414738 11.1125 L 45.291292 9.6572917 L 43.878459 8.2987183 L 42.465625 6.9406616 L 41.162345 5.9634603 L 39.858549 4.9867757 L 37.987345 4.0431641 L 36.115625 3.1000692 L 34.341056 2.4959717 L 32.567004 1.8913574 z " /></g><g
     inkscape:groupmode="layer"
     id="layer49"
     inkscape:label="Réteg 49"><path
       id="path2571"
       style="fill:#00fefe;stroke-width:0.264583"
       d="M 31.897278 1.984375 L 30.950049 6.3370809 L 30.00282 10.689787 L 31.696257 11.281482 L 33.39021 11.873694 L 34.837667 12.749609 L 36.28564 13.626042 L 37.721212 15.08125 L 39.156266 16.536458 L 39.814624 17.507975 L 39.952083 17.711064 C 40.136897 17.959921 40.315252 18.213722 40.486934 18.471741 L 44.207121 16.410368 L 47.941777 14.341243 L 48.185173 14.097847 L 48.305062 13.977958 C 48.028525 13.446226 47.732093 12.927154 47.416227 12.420947 L 47.133557 12.020455 L 45.875753 10.239168 C 45.853312 10.210977 45.830107 10.183539 45.80754 10.155452 L 44.152344 8.4940552 L 42.465625 6.8021688 L 40.255941 5.3510946 L 38.046773 3.9005371 L 35.879464 3.0168701 L 33.712671 2.1337199 L 32.804716 2.0587891 L 31.897278 1.984375 z " /></g><g
     inkscape:groupmode="layer"
     id="layer50"
     inkscape:label="Réteg 50"><path
       id="path2595"
       style="fill:#00fefe;stroke-width:0.264583"
       d="M 31.32677 1.5688965 L 30.456022 6.095752 L 29.584757 10.623124 L 29.675191 10.68772 L 29.765625 10.752315 L 30.95625 11.088212 L 32.146875 11.424626 L 33.803621 12.232328 L 35.459851 13.040031 L 37.160522 14.598075 L 38.861194 16.156637 L 39.340234 16.931783 C 39.601227 17.245637 39.851614 17.568023 40.090576 17.898649 L 43.934269 15.55874 L 47.864262 13.166638 C 47.479834 12.495256 47.061935 11.845432 46.614209 11.218437 L 46.125867 10.607621 L 45.016374 9.2211426 C 44.631814 8.7899873 44.231601 8.3725872 43.816964 7.9700562 L 42.418083 6.8584961 L 40.474015 5.3138875 L 38.780062 4.3661418 L 37.085592 3.4189128 L 35.013367 2.6670207 L 32.940625 1.9151286 L 32.133439 1.7420125 L 31.32677 1.5688965 z " /></g><g
     inkscape:groupmode="layer"
     id="layer51"
     inkscape:label="Réteg 51"><path
       id="path2619"
       style="fill:#00fefe;stroke-width:0.264583"
       d="M 30.967619 1.4877645 L 30.787785 1.6675985 L 30.607951 1.8479492 L 29.880863 6.1494954 L 29.154293 10.451042 L 29.327926 10.613306 L 29.501042 10.776086 L 30.823958 11.096997 L 32.146875 11.417908 L 33.998958 12.385807 L 35.851042 13.353707 L 37.371362 14.909167 C 38.061616 15.515108 38.703433 16.173022 39.291659 16.874422 L 39.555208 17.144173 L 39.714889 17.171045 L 39.874569 17.197917 L 43.624727 14.668872 L 47.280318 12.202873 C 46.69397 11.286061 46.043603 10.414269 45.338318 9.5901123 L 44.331144 8.5798381 L 42.750879 6.9944051 C 42.561939 6.8315314 42.371191 6.6709724 42.177271 6.5138143 L 40.777356 5.5696859 L 39.089087 4.4312541 L 36.915059 3.4121948 L 34.741032 2.3936523 L 32.854325 1.9409668 L 30.967619 1.4877645 z " /></g><g
     inkscape:groupmode="layer"
     id="layer52"
     inkscape:label="Réteg 52"><path
       id="path2749"
       style="fill:#00fefe;stroke-width:0.264583"
       d="M 29.968197 1.3229167 L 29.366683 5.8363363 L 28.765169 10.349756 L 29.000814 10.54716 L 29.236458 10.744047 L 30.559375 11.064441 L 31.882292 11.384835 L 33.821191 12.353768 L 35.760091 13.322701 L 37.164657 14.731401 C 37.843257 15.309114 38.477811 15.935582 39.061698 16.604671 L 39.220862 16.63361 L 39.415165 16.66875 L 43.153955 13.907678 L 46.675704 11.306287 C 46.235107 10.683247 45.765001 10.082923 45.267004 9.5063965 L 44.546635 8.7798258 L 42.949833 7.1685547 C 42.413113 6.6957155 41.856008 6.2451052 41.279134 5.8197998 L 40.287463 5.1810791 L 38.632784 4.1155111 C 38.476803 4.0283282 38.319949 3.9426024 38.162012 3.8586792 L 36.489762 3.1476115 L 34.60564 2.3455933 L 32.606278 1.8339966 L 30.606917 1.3229167 L 30.287557 1.3229167 L 29.968197 1.3229167 z " /></g><g
     inkscape:groupmode="layer"
     id="layer53"
     inkscape:label="Réteg 53"><path
       id="path2881"
       style="fill:#00fefe;stroke-width:0.264583"
       d="M 29.21217 1.2588379 L 28.746049 5.8177327 L 28.279411 10.376111 L 28.400334 10.497034 L 28.521257 10.617957 L 30.105139 10.986926 L 31.688505 11.356413 L 33.108573 11.990483 L 34.528125 12.624552 L 36.198824 13.888041 L 37.869523 15.15153 L 38.253479 15.738057 C 38.432653 15.918035 38.607753 16.101714 38.779028 16.288928 L 42.288375 13.433289 L 45.905208 10.489799 L 46.008044 10.408667 C 44.788053 8.847069 43.374703 7.442498 41.809334 6.2223592 L 40.878125 5.5800212 L 39.433252 4.5831828 C 39.102457 4.3819672 38.766933 4.1879031 38.426595 4.0018229 L 37.703125 3.6395711 L 36.794653 3.1848185 C 36.581242 3.0874231 36.367101 2.9921479 36.150765 2.9005981 L 34.268709 2.2722127 L 32.426444 1.6567464 C 32.27525 1.6189627 32.123769 1.5827259 31.971692 1.5477091 L 30.684432 1.4128337 L 29.21217 1.2588379 z " /></g><g
     inkscape:groupmode="layer"
     id="layer54"
     inkscape:label="Réteg 54"><path
       id="path2905"
       style="fill:#00fefe;stroke-width:0.264583"
       d="M 28.782739 1.0268107 L 28.641663 1.1684041 L 28.490767 1.3192993 L 28.130066 5.8575236 L 27.769881 10.395231 L 27.847396 10.473263 L 27.925427 10.551294 L 29.834871 10.949202 L 31.744832 11.347628 L 33.797937 12.416296 L 35.851042 13.484965 L 36.873201 14.488521 C 37.364674 14.889319 37.834709 15.31494 38.279834 15.763896 L 40.608891 13.686503 L 42.994792 11.558468 L 44.163196 10.496 L 45.25977 9.4981283 C 44.942506 9.1311767 44.614238 8.7739308 44.275334 8.4268758 L 43.457296 7.6465617 L 43.024764 7.2341838 C 42.046391 6.3651767 40.997361 5.5731009 39.889555 4.8663696 L 39.510767 4.6446777 L 38.241593 3.9005371 C 37.75331 3.6388434 37.255638 3.393331 36.749695 3.1636312 L 35.447449 2.6608195 L 34.04185 2.1177002 C 33.691167 2.004809 33.337237 1.9001751 32.980933 1.802474 L 31.124715 1.4546916 L 28.910897 1.0397298 C 28.868189 1.0353385 28.825492 1.0309837 28.782739 1.0268107 z " /></g><g
     inkscape:groupmode="layer"
     id="layer55"
     inkscape:label="Réteg 55"><path
       id="path2929"
       style="fill:#00fefe;stroke-width:0.264583"
       d="M 27.824141 0.98960368 L 27.682548 2.1487061 L 27.540955 3.3072917 L 27.392643 6.8843343 L 27.244849 10.461377 L 29.027686 10.829313 C 29.225857 10.86652 29.422727 10.907453 29.618347 10.95127 L 31.617708 11.363647 L 33.496147 12.291239 L 35.374068 13.218315 L 36.231897 13.989844 C 36.764232 14.385136 37.273843 14.808614 37.757385 15.2585 L 41.142708 11.88713 L 44.442765 8.6005086 C 42.702158 6.7820466 40.67588 5.23504 38.451917 4.0157756 L 37.777539 3.6762614 L 36.875785 3.2225423 C 36.206838 2.9143889 35.523324 2.6345617 34.826815 2.3848674 L 33.471859 1.9921265 L 31.810461 1.5110189 C 31.421596 1.4241663 31.029928 1.3464451 30.635856 1.2779582 L 29.516028 1.1632365 L 27.824141 0.98960368 z " /></g><g
     inkscape:groupmode="layer"
     id="layer56"
     inkscape:label="Réteg 56"><path
       id="path2953"
       style="fill:#00fefe;stroke-width:0.264583"
       d="M 26.722917 0.91053874 L 26.722917 5.744869 L 26.722917 10.553361 C 26.893715 10.562374 27.064137 10.57359 27.23348 10.587467 L 27.318229 10.587984 L 27.913542 10.592635 L 29.201835 10.862903 C 29.317029 10.885751 29.431678 10.910155 29.546 10.93525 L 29.765625 10.981242 L 31.617708 11.370365 L 33.469792 12.285555 L 35.321875 13.201261 L 36.244299 13.976925 L 36.505265 14.196549 C 36.73373 14.373093 36.95777 14.554708 37.177059 14.741736 L 39.30096 12.469523 L 41.435714 10.186458 L 42.577763 8.9317546 L 43.62266 7.7835042 C 41.203775 5.4867681 38.307799 3.6812965 35.138424 2.4980387 L 34.743099 2.361613 L 33.941081 2.0841105 C 32.790712 1.7191174 31.609105 1.4347719 30.405379 1.2371338 L 30.404346 1.2371338 L 28.773437 1.0908895 L 26.762708 0.91053874 C 26.749474 0.91032713 26.736153 0.91072923 26.722917 0.91053874 z " /></g><g
     inkscape:groupmode="layer"
     id="layer57"
     inkscape:label="Réteg 57"><path
       id="path2977"
       style="fill:#00fefe;stroke-width:0.264583"
       d="M 26.162744 0.90795492 C 26.060314 0.91050524 25.958462 0.91592929 25.856303 0.91984049 L 26.0196 3.5873779 L 26.19375 6.4321655 L 26.19375 8.4547811 L 26.19375 10.477397 L 26.718783 10.553361 C 27.797592 10.61004 28.847937 10.76497 29.86226 11.007597 L 30.766081 11.138338 L 32.311206 11.766207 L 33.856331 12.394076 L 34.848002 13.059151 C 35.308338 13.338156 35.754765 13.637223 36.185905 13.955221 L 36.643758 14.262179 L 36.795687 14.07666 L 36.948132 13.890625 L 39.911259 10.388513 L 42.769482 7.0109416 C 39.528375 4.2112523 35.540513 2.245954 31.236853 1.3895793 L 31.003792 1.3503052 L 29.747021 1.1384318 C 29.473192 1.1009184 29.198073 1.0692495 28.922266 1.0407633 L 28.50472 1.0004557 C 27.730237 0.93360496 26.94871 0.90154286 26.162744 0.90795492 z " /></g><g
     inkscape:groupmode="layer"
     id="layer58"
     inkscape:label="Réteg 58"><path
       id="path3001"
       style="fill:#00fefe;stroke-width:0.264583"
       d="M 26.162744 0.90795492 C 25.797375 0.91705197 25.434152 0.93647919 25.072371 0.96273193 L 25.239286 4.1330811 L 25.418604 7.540625 L 25.572599 9.0335571 L 25.726595 10.527006 L 25.75295 10.52959 C 25.798298 10.529508 25.843386 10.528298 25.888859 10.528556 C 26.98835 10.534792 28.060406 10.643385 29.098482 10.842749 L 29.571322 10.887191 L 30.048812 11.053072 C 31.061228 11.307129 32.037106 11.648635 32.96853 12.069031 L 33.734375 12.335681 L 34.692456 12.965617 C 35.095861 13.204488 35.488568 13.459043 35.870162 13.727844 L 35.983333 13.730945 L 36.115625 13.734045 L 38.963513 9.9761353 L 41.808818 6.2218424 C 37.45532 2.8286798 31.93241 0.86088492 26.162744 0.90795492 z " /></g><g
     inkscape:groupmode="layer"
     id="layer59"
     inkscape:label="Réteg 59"><path
       id="path3025"
       style="fill:#00fefe;stroke-width:0.264583"
       d="M 25.357109 0.94412842 C 24.996862 0.96577825 24.638147 0.99424771 24.281722 1.0324951 L 24.255884 1.0583333 L 24.122042 1.190625 L 24.568526 5.8208333 L 25.015011 10.451042 L 25.852686 10.528556 C 25.864779 10.528601 25.876756 10.528488 25.888859 10.528556 C 26.942917 10.534535 27.971901 10.634098 28.969808 10.817944 L 29.236458 10.842749 L 29.482955 10.921297 C 30.58246 11.158355 31.641146 11.498517 32.650203 11.930021 L 33.552474 12.217342 L 34.379814 12.784233 C 34.704805 12.967785 35.02273 13.161649 35.334277 13.364559 L 38.036438 9.4629883 L 40.773222 5.5112915 L 40.667285 5.3836507 C 37.14063 2.944119 32.958554 1.3927019 28.550195 1.0040731 L 27.209709 0.97875163 L 25.357109 0.94412842 z " /></g><g
     inkscape:groupmode="layer"
     id="layer60"
     inkscape:label="Réteg 60"><path
       id="path3049"
       style="fill:#00fefe;stroke-width:0.264583"
       d="M 26.162744 0.90795492 C 25.133444 0.93358267 24.118044 1.0289421 23.120036 1.1875244 L 23.445597 3.52795 L 23.783044 5.953125 L 24.087419 8.334375 L 24.375256 10.584884 C 24.871513 10.545444 25.376074 10.525648 25.888859 10.528556 C 26.872384 10.534135 27.833753 10.621863 28.768787 10.782804 L 29.236458 10.790039 L 29.943392 11.027234 C 30.902993 11.261664 31.829853 11.574766 32.7179 11.95896 L 33.40933 12.191504 L 33.839278 12.492261 C 34.086968 12.620972 34.331039 12.755492 34.571533 12.895337 L 34.806661 12.632821 L 35.10225 12.303125 L 37.436475 8.5080078 L 39.736076 4.7692179 C 35.762882 2.274756 31.051485 0.86807167 26.162744 0.90795492 z " /></g><g
     inkscape:groupmode="layer"
     id="layer61"
     inkscape:label="Réteg 61"><path
       id="path3073"
       style="fill:#00fefe;stroke-width:0.264583"
       d="M 25.08374 0.96221517 C 24.173349 1.0278256 23.274758 1.1458502 22.391398 1.3151652 L 22.136633 1.56993 L 22.861137 5.7459025 L 23.58564 9.921875 L 23.695711 10.31875 L 23.785628 10.642244 C 24.470188 10.564167 25.171506 10.524488 25.888859 10.528556 C 26.839447 10.533948 27.769272 10.616041 28.674736 10.766785 L 29.236458 10.772986 L 29.961479 11.031885 C 31.130494 11.318808 32.251664 11.721632 33.312179 12.228194 L 33.734375 12.379089 L 33.86925 12.406995 L 34.004126 12.435417 L 35.568888 9.5911458 L 37.133651 6.746875 L 37.908797 5.3536784 L 38.606429 4.1010417 C 35.477096 2.3568454 31.9496 1.2651475 28.271659 0.98236898 L 26.394771 0.9704834 L 25.08374 0.96221517 z " /></g><g
     inkscape:groupmode="layer"
     id="layer62"
     inkscape:label="Réteg 62"><path
       id="path3223"
       style="fill:#00fefe;stroke-width:0.264583"
       d="M 25.377779 0.94257812 C 23.94114 1.0276144 22.533611 1.2456858 21.166667 1.5843994 L 21.166667 1.8009237 L 21.166667 2.2412069 L 22.134049 6.6280192 L 23.041488 10.74353 C 23.958945 10.597616 24.909174 10.523 25.888859 10.528556 C 27.316996 10.536656 28.699242 10.717356 30.019873 11.046354 L 30.33975 11.089246 L 30.683915 11.225155 C 31.535353 11.473548 32.359128 11.784896 33.149915 12.152747 L 33.254301 12.170833 L 35.325492 7.8062419 L 37.385832 3.4638713 C 34.580794 2.0950935 31.499161 1.2342322 28.303182 0.98443604 L 26.9875 0.96583252 L 25.377779 0.94257812 z " /></g><g
     inkscape:groupmode="layer"
     id="layer63"
     inkscape:label="Réteg 63"><path
       id="path3247"
       style="fill:#00fefe;stroke-width:0.264583"
       d="M 26.162744 0.90795492 C 25.568743 0.92274449 24.979603 0.96187654 24.39541 1.0216431 L 24.080184 1.056783 C 22.68224 1.2192632 21.315837 1.5068058 19.992578 1.9078939 L 20.006014 2.0143473 L 20.036503 2.2489583 L 21.1677 6.4822917 L 22.298381 10.715625 L 22.41982 10.854118 C 23.527406 10.63488 24.686122 10.521735 25.888859 10.528556 C 26.039647 10.529412 26.189719 10.532695 26.339478 10.537341 L 26.459884 10.519255 L 26.676408 10.551294 C 27.836182 10.609437 28.96337 10.780853 30.048295 11.053072 L 30.332515 11.095447 L 30.955733 11.306287 C 31.239511 11.394134 31.520357 11.488894 31.797542 11.590507 L 32.411458 11.798246 L 32.606795 11.389486 L 32.802132 10.980208 L 34.505904 6.9236084 L 36.189006 2.9171346 C 34.338419 2.1304028 32.382791 1.5593326 30.365588 1.2314494 L 28.91193 1.0666016 L 27.9585 0.95859782 C 27.363307 0.92037839 26.764344 0.90304695 26.162744 0.90795492 z " /></g><g
     inkscape:groupmode="layer"
     id="layer64"
     inkscape:label="Réteg 64"><path
       id="path3271"
       style="fill:#00fefe;stroke-width:0.264583"
       d="M 28.82253 1.0309448 L 26.458333 1.0335286 L 24.25485 1.0355957 C 22.373357 1.2397323 20.548396 1.6731046 18.807121 2.3016683 L 18.94303 2.7435018 L 19.116146 3.3072917 L 20.41064 7.3225505 L 21.607467 11.036536 C 22.956853 10.697946 24.388593 10.520047 25.888859 10.528556 C 26.139762 10.529979 26.388602 10.53787 26.636617 10.549744 L 26.878463 10.525972 L 27.30686 10.594185 C 28.153149 10.667122 28.980719 10.800287 29.785779 10.988993 L 30.559375 11.111983 L 31.110763 11.263912 L 31.66215 11.415841 L 33.261019 6.9649495 L 34.859888 2.5135417 L 34.084224 2.1760946 L 33.711637 2.0138306 C 33.241365 1.8695187 32.766231 1.7385969 32.286401 1.6216064 L 31.404801 1.4345378 L 30.818791 1.3099976 C 30.159833 1.1904454 29.493939 1.0975663 28.82253 1.0309448 z " /></g><g
     inkscape:groupmode="layer"
     id="layer65"
     inkscape:label="Réteg 65"><path
       id="path3295"
       style="fill:#00fefe;stroke-width:0.264583"
       d="M 30.101005 1.1911418 L 26.19375 1.1973429 L 23.025985 1.2025106 C 21.189672 1.5020272 19.414298 2.0184698 17.727083 2.7202474 L 17.727083 2.7238647 L 17.727083 3.0086019 L 19.336804 7.2925781 L 20.824569 11.254093 C 22.398845 10.77449 24.094842 10.518381 25.888859 10.528556 C 26.728611 10.533319 27.551935 10.598403 28.356925 10.717175 L 28.442708 10.715625 L 29.641085 10.921297 L 30.838944 11.127486 L 32.179948 6.5174316 L 33.508032 1.9523356 C 33.229782 1.869505 32.949892 1.7910661 32.66829 1.7177246 L 31.907613 1.5487427 L 30.883903 1.3213664 C 30.624093 1.2735235 30.362913 1.2308468 30.101005 1.1911418 z " /></g><g
     inkscape:groupmode="layer"
     id="layer66"
     inkscape:label="Réteg 66"><path
       id="path3319"
       style="fill:#00fefe;stroke-width:0.264583"
       d="M 28.553296 1.0040731 L 25.4 1.1467 L 22.628076 1.271757 C 20.463168 1.6635847 18.387003 2.3564078 16.443958 3.2985067 L 18.262968 7.4651774 L 20.032369 11.517643 C 21.824852 10.868431 23.789914 10.516652 25.888859 10.528556 C 26.647341 10.532858 27.392437 10.58593 28.122831 10.683586 L 29.995585 10.663949 L 31.016711 6.2254598 L 32.037321 1.7864543 L 31.936552 1.686202 L 31.8363 1.5854329 L 30.271537 1.291394 L 28.959989 1.0448975 C 28.824567 1.0307025 28.68916 1.0160674 28.553296 1.0040731 z " /></g><g
     inkscape:groupmode="layer"
     id="layer67"
     inkscape:label="Réteg 67"><path
       id="path3343"
       style="fill:#00fefe;stroke-width:0.264583"
       d="M 27.14718 0.98546956 L 24.751978 1.1451497 L 22.484932 1.2965617 C 22.340632 1.3236078 22.197441 1.3536741 22.053951 1.3833781 L 20.2861 1.8376139 L 19.89646 1.9378662 C 18.247028 2.4454441 16.664782 3.1271784 15.173234 3.9594482 L 17.23409 7.9276815 L 19.256189 11.822017 C 21.252288 10.978975 23.4824 10.514907 25.888859 10.528556 C 26.360767 10.531233 26.827368 10.553351 27.288774 10.592635 L 29.104167 10.518221 L 29.107784 10.35234 L 29.111401 10.186458 L 29.857092 5.771224 L 30.6033 1.3554728 L 28.87524 1.1704712 L 27.14718 0.98546956 z " /></g><g
     inkscape:groupmode="layer"
     id="layer68"
     inkscape:label="Réteg 68"><path
       id="path3367"
       style="fill:#00fefe;stroke-width:0.264583"
       d="M 25.003125 1.0604004 L 22.578467 1.453658 L 20.253544 1.830896 C 20.145377 1.8623359 20.037649 1.8945931 19.93005 1.9275309 L 18.212842 2.543514 L 17.766874 2.7037109 C 16.471505 3.2398206 15.227814 3.8846667 14.048238 4.6255575 L 14.965495 6.2704183 L 15.969051 8.0697917 L 17.254761 10.252087 L 18.408179 12.209591 C 19.665971 11.589248 21.027126 11.124857 22.475631 10.843266 L 22.621875 10.787972 L 22.836332 10.77712 C 23.816953 10.60872 24.83603 10.522585 25.888859 10.528556 C 26.250884 10.53061 26.609352 10.544643 26.965279 10.568347 L 28.023612 10.51512 L 28.171924 9.4247477 L 28.319718 8.334375 L 28.705741 4.9066772 L 29.091764 1.4789795 L 28.767236 1.2727905 L 28.442708 1.0666016 L 26.722917 1.063501 L 25.003125 1.0604004 z " /></g><g
     inkscape:groupmode="layer"
     id="layer69"
     inkscape:label="Réteg 69"><path
       id="path3391"
       style="fill:#00fefe;stroke-width:0.264583"
       d="M 27.548189 1.0102743 L 25.481649 1.1828735 L 23.415625 1.3559896 L 21.960417 1.6210897 L 20.505208 1.8861898 L 18.785417 2.4355103 L 17.23099 2.9326375 C 16.897274 3.0801624 16.567109 3.2353424 16.240869 3.3972087 L 16.108577 3.4633545 C 14.950899 4.046369 13.843162 4.7187831 12.793534 5.4684001 L 15.212508 9.1580973 L 17.522445 12.681396 C 19.358579 11.626658 21.443278 10.918035 23.718966 10.649479 L 25.446509 10.31875 L 26.225273 10.31875 L 27.004036 10.31875 L 27.106873 9.9880208 L 27.210225 9.6572917 L 27.379207 5.3335246 L 27.548189 1.0102743 z " /></g><g
     inkscape:groupmode="layer"
     id="layer70"
     inkscape:label="Réteg 70"><path
       id="path3415"
       style="fill:#00fefe;stroke-width:0.264583"
       d="M 25.929167 1.245402 L 24.010937 1.4102498 L 22.092708 1.5756144 L 20.505208 1.984375 L 18.917708 2.3926188 L 16.933333 3.1858521 L 15.657959 3.6953817 C 14.205928 4.4640907 12.835523 5.3738895 11.565702 6.4011597 L 14.086479 9.7234375 L 16.710608 13.181624 C 18.221171 12.188786 19.920722 11.440201 21.773865 10.995711 L 22.868888 10.613306 L 24.566459 10.431405 L 26.26403 10.249504 L 26.098665 8.4981893 L 25.932784 6.746875 L 25.931234 3.9961385 L 25.929167 1.245402 z " /></g><g
     inkscape:groupmode="layer"
     id="layer71"
     inkscape:label="Réteg 71"><path
       id="path3439"
       style="fill:#00fefe;stroke-width:0.264583"
       d="M 24.278105 1.3663249 L 23.317957 1.5058512 L 22.357292 1.6448608 L 20.240625 2.1657593 L 18.123958 2.6866577 L 15.916341 3.7191528 L 14.276131 4.4855143 L 14.275614 4.4860311 C 14.272515 4.4879323 14.269411 4.4898129 14.266313 4.4917155 C 14.097913 4.5951296 13.930868 4.7007343 13.765051 4.8079753 C 13.630326 4.8951078 13.496505 4.9834634 13.363525 5.0730754 C 13.318923 5.1031318 13.274086 5.1331769 13.229683 5.1635091 C 13.074603 5.269447 12.920824 5.3772284 12.768213 5.4864868 C 12.613257 5.5974238 12.460123 5.7101606 12.307776 5.8244507 C 12.296524 5.8328918 12.284907 5.8407961 12.273669 5.8492554 C 12.13925 5.9504419 12.006028 6.0534993 11.873694 6.1572469 C 11.845105 6.1796598 11.816401 6.2018952 11.787911 6.2244263 C 11.638583 6.342521 11.490592 6.4622792 11.34401 6.5835775 C 11.341836 6.5853769 11.339466 6.586945 11.337292 6.5887451 C 11.183212 6.7163339 11.030928 6.845786 10.879956 6.9768351 C 10.744086 7.0947755 10.60966 7.2142731 10.476363 7.3349528 C 10.46127 7.3486174 10.445948 7.3620779 10.430888 7.3757772 L 10.513053 7.5127197 L 10.715625 7.8491333 L 13.344922 10.914579 L 15.824874 13.806909 C 17.268314 12.71067 18.911057 11.850457 20.716565 11.28665 L 21.62762 10.873755 L 23.375317 10.551811 L 25.123014 10.22935 L 25.012427 9.6789958 L 24.901839 9.128125 L 24.747327 6.746875 L 24.592814 4.365625 L 24.435201 2.8659749 L 24.278105 1.3663249 z " /></g><g
     inkscape:groupmode="layer"
     id="layer72"
     inkscape:label="Réteg 72"><path
       id="path3471"
       style="fill:#00fefe;stroke-width:0.264583"
       d="M 22.722127 1.6541626 L 20.605461 2.155424 L 18.488794 2.6566854 L 15.578377 4.0886393 L 12.835392 5.4389445 C 12.616245 5.5947924 12.39925 5.7534028 12.185303 5.915918 L 10.999845 6.8848511 L 10.74043 7.0967244 C 10.271261 7.5098943 9.8178698 7.9399809 9.3808228 8.3850179 L 9.4123454 8.4713175 L 9.4929606 8.6935262 L 12.22561 11.622546 L 14.938106 14.530896 C 16.42512 13.224227 18.161516 12.186159 20.097481 11.494389 L 21.399211 10.923364 L 22.741248 10.606071 L 24.083285 10.288261 L 23.466785 6.0244385 L 22.850802 1.760616 L 22.786206 1.7073893 L 22.722127 1.6541626 z " /></g><g
     inkscape:groupmode="layer"
     id="layer73"
     inkscape:label="Réteg 73"><path
       id="path3643"
       style="fill:#00fefe;stroke-width:0.264583"
       d="M 20.758423 2.1321696 L 19.573482 2.4939046 L 18.388542 2.8551229 L 16.958138 3.4245972 L 15.528251 3.9935547 L 13.783138 5.014681 L 12.038542 6.0358073 L 9.9916382 7.7850545 L 9.9880208 7.7881551 C 9.261253 8.4810238 8.5762534 9.214759 7.9375 9.9844035 L 7.9375 10.254154 L 11.040153 12.904122 L 13.996562 15.429549 C 14.840643 14.558044 15.782518 13.780832 16.81086 13.115995 L 16.93385 13.003341 L 18.322396 12.213208 L 19.711458 11.423075 L 21.166667 10.962122 L 22.621875 10.500651 L 22.710242 10.431921 L 22.798092 10.362675 L 21.939229 6.4383667 L 21.080367 2.5135417 L 20.919653 2.3228556 L 20.758423 2.1321696 z " /></g><g
     inkscape:groupmode="layer"
     id="layer74"
     inkscape:label="Réteg 74"><path
       id="path3667"
       style="fill:#00fefe;stroke-width:0.264583"
       d="M 19.038114 2.7011271 L 17.688326 3.2142741 L 16.338021 3.7269043 L 15.246615 4.2798421 L 14.155208 4.8322632 L 12.226644 6.1603475 L 10.332703 7.4646606 C 10.302189 7.492704 10.271609 7.5207077 10.241235 7.5488932 L 8.3240397 9.5870117 L 7.8320801 10.109977 C 7.319032 10.736259 6.8371846 11.386212 6.3877238 12.056112 L 9.5978638 14.337626 L 12.832292 16.636711 L 12.907739 16.65273 L 12.921692 16.655831 C 13.78769 15.562582 14.789025 14.581854 15.909106 13.74283 L 16.609839 13.042098 L 18.954399 11.878861 L 21.298958 10.715625 L 21.391459 10.667049 L 21.48396 10.61899 L 21.208525 9.7410075 L 20.933606 8.8635417 L 19.98586 5.7825928 L 19.038114 2.7011271 z " /></g><g
     inkscape:groupmode="layer"
     id="layer75"
     inkscape:label="Réteg 75"><path
       id="path3843"
       style="fill:#00fefe;stroke-width:0.264583"
       d="M 16.613973 3.7041667 L 14.833203 4.6400269 L 13.05295 5.5753703 L 10.957987 7.2553711 L 8.8635417 8.9348551 L 7.503418 10.61899 L 6.6430054 11.684558 C 6.0451461 12.542097 5.502026 13.434673 5.0188151 14.35623 L 5.060673 14.389303 L 5.159375 14.468884 L 8.5850057 16.347839 L 11.867493 18.148246 C 12.387456 17.31951 12.97751 16.540486 13.631209 15.819706 L 13.717509 15.691549 L 13.927832 15.501379 C 14.465421 14.939491 15.04275 14.415715 15.657959 13.935583 L 16.954521 12.762528 L 18.529102 11.923303 L 20.103682 11.084078 L 19.75745 10.238135 L 19.411735 9.3927083 L 18.251082 6.5484375 L 17.09043 3.7041667 L 16.852201 3.7041667 L 16.613973 3.7041667 z " /></g><g
     inkscape:groupmode="layer"
     id="layer76"
     inkscape:label="Réteg 76"><path
       id="path3867"
       style="fill:#00fefe;stroke-width:0.264583"
       d="M 15.02854 4.7263265 L 14.636833 4.8761882 L 14.245642 5.0265666 L 12.766663 6.0084188 L 11.287166 6.990271 L 9.722404 8.4392782 L 8.1571248 9.8882853 L 6.9887207 11.407056 L 5.8766439 12.851929 C 5.8296511 12.928033 5.7822348 13.003763 5.736084 13.080339 L 4.7314941 14.943274 L 4.6188395 15.152047 C 4.3173323 15.782363 4.0439846 16.425011 3.7997681 17.078027 L 3.8364583 17.105416 L 7.4083333 18.548222 L 10.883057 19.951754 C 11.672275 18.273163 12.722381 16.745433 13.995011 15.431099 L 15.280721 13.890625 L 16.893542 12.832292 L 18.506364 11.773958 L 18.513599 11.631848 L 18.520833 11.490255 L 16.774687 8.1080322 L 15.02854 4.7263265 z " /></g><g
     inkscape:groupmode="layer"
     id="layer77"
     inkscape:label="Réteg 77"><path
       id="path3891"
       style="fill:#00fefe;stroke-width:0.264583"
       d="M 12.918075 6.0828328 L 12.128459 6.5468872 L 11.338326 7.0114583 L 9.5653076 8.73125 L 7.7922892 10.451042 L 6.5365519 12.212174 L 5.2802979 13.973307 L 4.1961263 16.287378 L 3.7046834 17.33641 C 3.4647094 18.001963 3.2554681 18.678088 3.0783651 19.362642 L 3.0773315 19.390548 L 3.0427083 20.179647 L 6.2177083 21.047294 L 9.3927083 21.914941 L 9.8236898 21.937679 L 10.089823 21.951632 C 10.421989 20.934113 10.8443 19.957868 11.348661 19.03398 L 11.416357 18.85363 L 11.716081 18.394226 C 11.921342 18.054283 12.13816 17.722372 12.36617 17.398938 L 12.46849 17.242875 L 13.520622 15.632638 L 15.226978 14.068909 L 16.933333 12.505697 L 16.933333 12.34705 L 16.933333 12.188403 L 14.925704 9.1358765 L 12.918075 6.0828328 z " /></g><g
     inkscape:groupmode="layer"
     id="layer78"
     inkscape:label="Réteg 78"><path
       id="path3915"
       style="fill:#00fefe;stroke-width:0.264583"
       d="M 10.792106 7.6155558 L 9.4774577 8.9012655 L 8.1622925 10.186458 L 6.961849 11.773958 L 5.7608887 13.360942 L 4.8281291 15.213542 L 3.8948527 17.065625 L 3.3853231 18.520833 L 3.0427083 19.498035 C 2.7082189 20.825039 2.4951711 22.183552 2.4158732 23.559285 L 2.4778849 23.562386 L 2.778125 23.577372 L 5.4239583 23.928772 L 8.0697917 24.280688 L 8.9064331 24.311178 L 9.4924438 24.332365 C 9.7869629 22.686738 10.304768 21.115938 11.021033 19.663399 L 11.397237 18.653125 L 12.3486 17.21497 L 13.299447 15.776815 L 14.42961 14.569137 L 15.559257 13.361458 L 13.175423 10.488765 L 10.792106 7.6155558 z " /></g><g
     inkscape:groupmode="layer"
     id="layer79"
     inkscape:label="Réteg 79"><path
       id="path3939"
       style="fill:#00fefe;stroke-width:0.264583"
       d="M 8.9136678 9.6764119 L 7.8196777 10.91923 L 6.7262044 12.162048 L 5.6554687 13.95212 L 4.5842163 15.742708 L 3.8840007 17.496606 L 3.183785 19.250505 L 2.7827759 20.93619 L 2.6153442 21.639506 C 2.4055009 23.049314 2.3326536 24.484619 2.4132894 25.9302 C 2.3883003 26.388447 2.3820982 26.846241 2.390035 27.302726 L 3.8602295 27.163717 L 5.6885417 26.991117 L 7.5685303 26.989567 L 9.2170085 26.9875 C 9.2563227 25.683531 9.4328098 24.410585 9.7358398 23.186698 L 9.7404907 23.125203 L 9.7906169 22.976375 C 9.996519 22.186404 10.254837 21.417627 10.56318 20.675224 L 11.122835 19.008659 L 12.072131 17.507975 L 13.021427 16.007292 L 13.651363 15.334465 L 14.281299 14.661637 L 11.597225 12.168766 L 8.9136678 9.6764119 z " /></g><g
     inkscape:groupmode="layer"
     id="layer80"
     inkscape:label="Réteg 80"><path
       id="path3963"
       style="fill:#00fefe;stroke-width:0.264583"
       d="M 6.9799357 11.90625 L 5.7815592 13.956771 L 4.5831828 16.007292 L 4.0090576 17.383952 L 3.4354492 18.760612 L 2.8840617 21.082434 L 2.4737508 22.80946 C 2.3776171 23.840564 2.3548537 24.882607 2.4132894 25.9302 C 2.3205581 27.630692 2.4595754 29.323113 2.7998291 30.976404 L 3.2680176 30.865299 L 3.8364583 30.730424 L 6.746875 30.158366 L 9.3399984 29.649353 C 9.2649937 29.060122 9.2202645 28.45993 9.2102905 27.848946 C 9.1832941 26.195203 9.3785737 24.583542 9.7709798 23.050789 L 9.788033 22.954154 L 10.101709 21.169767 L 11.39362 18.594214 L 12.685014 16.01866 L 12.494328 15.852779 L 12.303125 15.686381 L 9.8815674 13.796574 L 7.4600098 11.90625 L 7.2202311 11.90625 L 6.9799357 11.90625 z " /></g><g
     inkscape:groupmode="layer"
     id="layer81"
     inkscape:label="Réteg 81"><path
       id="path3987"
       style="fill:#00fefe;stroke-width:0.264583"
       d="M 5.7867269 14.23324 L 5.4177572 14.723132 L 5.0487874 15.213542 L 4.2498698 17.197917 L 3.4509521 19.182292 L 3.0292725 20.769792 L 2.607076 22.357292 L 2.4618652 25.135417 L 2.3921021 26.461951 C 2.3677846 27.380742 2.4116952 28.296104 2.5161255 29.203385 L 2.6236125 29.897917 L 2.758488 30.769698 C 3.017321 32.095727 3.4063799 33.397137 3.9119059 34.65835 L 6.3846232 33.758146 L 8.8635417 32.855876 L 9.570992 32.581474 L 9.9492635 32.435229 C 9.4944291 30.99142 9.2365237 29.455936 9.2102905 27.848946 C 9.2002051 27.231138 9.2223926 26.619117 9.272819 26.01495 L 9.218042 25.267708 L 9.6314535 23.173263 L 10.045382 21.0783 L 10.826729 19.409668 L 11.60756 17.740519 L 8.6971436 15.986621 L 5.7867269 14.23324 z " /></g><g
     inkscape:groupmode="layer"
     id="layer82"
     inkscape:label="Réteg 82"><path
       id="path4011"
       style="fill:#00fefe;stroke-width:0.264583"
       d="M 4.7072062 16.936434 L 4.4782796 17.077511 L 4.2498698 17.219104 L 3.5873779 19.3151 L 2.9254028 21.411096 L 2.6174113 23.81405 L 2.3967529 25.532292 C 2.4016028 25.664947 2.4058797 25.797365 2.4132894 25.9302 C 2.3955919 26.254733 2.3880376 26.579011 2.3869344 26.902751 L 2.6029419 28.801343 L 2.8969808 31.386198 L 3.4628377 33.218644 L 3.8927856 34.611324 C 4.3994586 35.88369 5.0241677 37.115106 5.7526204 38.289136 L 6.4388835 37.878308 L 7.2760417 37.377047 L 9.2604167 36.232931 L 11.100614 35.172013 C 9.9369979 32.990268 9.2538667 30.518331 9.2102905 27.848946 C 9.2007466 27.264306 9.2193324 26.684619 9.264034 26.112101 L 9.264034 26.111068 L 9.2604167 24.161833 L 9.7647786 22.201229 L 10.268624 20.240625 L 10.360091 19.87734 L 10.451042 19.514571 L 7.5788656 18.225244 L 4.7072062 16.936434 z " /></g><g
     inkscape:groupmode="layer"
     id="layer83"
     inkscape:label="Réteg 83"><path
       id="path4203"
       style="fill:#00fefe;stroke-width:0.264583"
       d="M 3.571875 19.678385 L 3.2023885 20.885547 L 2.832902 22.092708 L 2.8055135 26.326042 L 2.778125 30.559375 L 3.3868734 32.676042 L 3.9961385 34.792708 L 5.0348348 36.909375 L 5.536613 37.933085 C 6.2813638 39.180938 7.1419733 40.366873 8.1023478 41.471887 L 8.2780477 41.366984 L 8.5989583 41.174748 L 10.780221 39.345402 L 12.75426 37.690206 C 10.647898 35.035014 9.3324716 31.756447 9.2175252 28.09906 L 8.9885986 26.256795 L 9.2630005 24.307043 L 9.5368856 22.357292 L 9.6665934 21.939229 L 9.796818 21.52065 L 6.6843465 20.599776 L 3.571875 19.678385 z " /></g><g
     inkscape:groupmode="layer"
     id="layer84"
     inkscape:label="Réteg 84"><path
       id="path4227"
       style="fill:#00fefe;stroke-width:0.264583"
       d="M 2.9424561 22.584668 L 2.758488 24.301359 L 2.5745199 26.018567 L 2.7393677 28.160555 L 2.9036987 30.302543 L 3.4483683 32.382003 L 3.9930379 34.461462 L 4.7661174 36.166268 L 5.5391968 37.870557 L 6.7163859 39.638924 L 7.2259155 40.404252 C 8.3652805 41.871588 9.6731726 43.218128 11.115601 44.403491 L 13.064836 42.106991 L 14.898315 39.945365 C 12.225073 37.58773 10.281435 34.464181 9.5394694 30.854964 L 9.156547 29.765625 L 9.1425944 26.686226 L 9.128125 23.607345 L 6.0352905 23.095748 L 2.9424561 22.584668 z " /></g><g
     inkscape:groupmode="layer"
     id="layer85"
     inkscape:label="Réteg 85"><path
       id="path4423"
       style="fill:#00fefe;stroke-width:0.264583"
       d="M 2.6458333 25.664583 L 2.6479004 26.127604 L 2.6499674 26.590625 L 2.9145508 28.898494 L 3.1791341 31.206364 L 3.8695312 33.396411 L 4.5594116 35.586458 L 5.2244873 36.909375 L 5.889563 38.232292 L 7.2119629 40.152071 L 8.1969157 41.580924 C 9.9889319 43.619039 12.120393 45.375598 14.481287 46.729964 L 14.563969 46.635913 L 14.741219 46.434375 L 16.119946 44.06346 L 17.42736 41.816052 C 13.949399 39.675803 11.235974 36.438895 9.9771688 32.518945 L 9.794751 32.146875 L 9.3952922 30.56971 L 8.9958333 28.993062 L 8.9958333 27.489278 L 8.9958333 25.986011 L 8.5772542 25.825297 L 8.1586751 25.664583 L 5.4022542 25.664583 L 2.6458333 25.664583 z " /></g><g
     inkscape:groupmode="layer"
     id="layer86"
     inkscape:label="Réteg 86"><path
       id="path4447"
       style="fill:#00fefe;stroke-width:0.264583"
       d="M 8.9958333 28.003459 L 7.2098958 28.168306 L 5.4239583 28.332638 L 4.1671875 28.478882 L 2.9104167 28.624609 L 2.9104167 28.683521 L 2.9104167 28.742432 L 3.1884359 30.312362 L 3.4664551 31.882292 L 4.0193929 33.602083 L 4.571814 35.321875 L 5.3640137 36.909375 L 6.1556966 38.496875 L 6.9644328 39.6875 L 7.7726522 40.878125 L 9.5089803 42.688867 L 11.244792 44.500126 L 12.552205 45.460791 L 13.254488 45.977039 C 14.769209 46.970272 16.394418 47.79381 18.097603 48.413066 L 18.388542 48.418233 L 19.333704 45.733643 L 20.21582 43.227852 C 18.811087 42.655765 17.485961 41.921293 16.274459 41.04504 L 16.009359 40.912748 L 15.745809 40.649198 C 14.58042 39.740823 13.531903 38.696202 12.632821 37.535693 L 11.959477 36.862349 L 11.450981 35.796781 C 10.965969 34.975808 10.550059 34.109788 10.21333 33.204692 L 9.5823608 31.882292 L 9.2888387 30.640507 L 8.9958333 29.399239 L 8.9958333 28.701607 L 8.9958333 28.003459 z " /></g><g
     inkscape:groupmode="layer"
     id="layer87"
     inkscape:label="Réteg 87"><path
       id="path4471"
       style="fill:#00fefe;stroke-width:0.264583"
       d="M 8.3075033 30.427083 L 5.9830973 30.935063 L 3.6581746 31.443042 L 3.5729085 31.530375 L 3.4871257 31.617708 L 4.076237 33.469792 L 4.6653483 35.321875 L 5.7794922 37.462313 L 6.8936361 39.602234 L 8.3447103 41.3613 L 9.7957845 43.120882 L 11.555367 44.571956 L 13.273092 45.988924 C 13.30591 46.010401 13.338872 46.031685 13.371794 46.053003 L 15.454354 47.137174 L 17.383952 48.141764 C 17.647913 48.247966 17.914436 48.34736 18.182353 48.443555 L 19.394165 48.84043 C 20.184994 49.074006 20.990176 49.262966 21.806938 49.404736 L 21.813656 49.40422 L 22.328353 49.344792 L 22.662699 47.492708 L 22.997046 45.640625 L 23.145874 44.813802 L 23.260079 44.181283 C 21.025368 43.680997 18.914054 42.788794 17.039787 41.571106 L 16.271875 41.202653 L 15.614034 40.544812 C 14.544892 39.695535 13.576678 38.73067 12.73514 37.665918 L 11.714014 36.644792 L 10.642761 34.395833 L 9.5720256 32.146875 L 9.3952922 31.286979 L 9.2185588 30.427083 L 8.7627726 30.427083 L 8.3075033 30.427083 z " /></g><g
     inkscape:groupmode="layer"
     id="layer88"
     inkscape:label="Réteg 88"><path
       id="path4673"
       style="fill:#00fefe;stroke-width:0.264583"
       d="M 9.5585897 32.488973 L 7.0279948 33.331816 L 4.4979167 34.174658 L 4.4979167 34.410303 L 4.4979167 34.645431 L 5.1562744 36.133712 L 5.8146322 37.62251 L 6.9975057 39.401729 L 8.1803792 41.181466 L 10.407117 43.318803 L 12.633854 45.456657 L 14.673006 46.650382 L 16.712158 47.844108 L 19.270142 48.670931 L 21.162533 49.28278 C 22.882292 49.63643 24.65703 49.779422 26.458333 49.680172 L 26.458333 47.095833 L 26.458333 44.618982 C 26.453834 44.618753 26.449397 44.618698 26.444897 44.618465 C 24.440533 44.514602 22.488589 44.095217 20.661788 43.404069 L 20.513477 43.368929 L 20.266463 43.248523 C 19.45618 42.921226 18.672143 42.539817 17.92087 42.108541 L 16.801042 41.563871 L 15.281755 40.358777 L 13.762467 39.154199 L 12.56099 37.634912 L 11.359513 36.115625 L 10.523389 34.395833 L 9.6877808 32.676042 L 9.6231852 32.582507 L 9.5585897 32.488973 z " /></g><g
     inkscape:groupmode="layer"
     id="layer89"
     inkscape:label="Réteg 89"><path
       id="path4697"
       style="fill:#00fefe;stroke-width:0.264583"
       d="M 10.42417 34.469731 L 7.9757406 35.69963 L 5.5273112 36.929529 L 6.9008708 39.033276 L 8.2744303 41.137541 L 10.026778 42.889889 L 11.779126 44.642236 L 13.837915 45.98634 L 15.896704 47.330444 L 17.940507 48.11851 L 19.98431 48.906576 L 21.832259 49.313269 L 23.06991 49.585087 C 23.613281 49.645575 24.161122 49.684351 24.712187 49.701359 L 26.705347 49.665702 C 26.747618 49.662855 26.789655 49.661584 26.831954 49.658468 C 27.923179 49.652038 29.015518 49.550944 30.099455 49.364429 L 30.237431 49.225936 L 29.91807 47.168697 L 29.599227 45.111458 L 29.487089 44.714583 L 29.424561 44.493925 C 28.464282 44.625301 27.469507 44.671559 26.444897 44.618465 C 24.651361 44.525527 22.900141 44.178655 21.242631 43.611808 L 20.24941 43.345158 L 18.727539 42.590165 L 17.205668 41.835173 L 16.077572 41.048657 L 14.948958 40.262142 L 13.575399 38.850342 L 12.201839 37.438542 L 11.313005 35.954395 L 10.42417 34.469731 z " /></g><g
     inkscape:groupmode="layer"
     id="layer90"
     inkscape:label="Réteg 90"><path
       id="path4721"
       style="fill:#00fefe;stroke-width:0.264583"
       d="M 11.400854 36.430334 L 9.2754028 37.825598 L 7.1504679 39.220345 L 7.6078044 39.994458 L 8.0651408 40.769088 L 9.8836344 42.620138 L 11.702645 44.471704 L 13.19351 45.483012 L 14.684375 46.49432 L 16.271875 47.287553 L 17.859375 48.080269 L 19.272725 48.54329 L 20.686076 49.006311 L 22.580017 49.368563 L 24.209375 49.679655 C 24.472676 49.694266 24.736675 49.70573 25.001575 49.710144 L 27.252083 49.624361 L 28.482499 49.577336 C 30.252053 49.416396 32.0117 49.017019 33.721973 48.413582 L 33.767965 48.29421 L 33.888371 47.981051 L 33.188155 46.016829 L 32.487939 44.053125 L 32.306555 43.856755 L 32.2771 43.824715 C 30.482327 44.428455 28.52525 44.726266 26.444897 44.618465 C 24.955086 44.541265 23.494775 44.288884 22.092708 43.881042 L 20.79408 43.612325 L 19.10271 42.845447 L 17.41134 42.078569 L 15.75046 40.893628 L 14.089579 39.708687 L 12.948564 38.308773 L 11.807548 36.909375 L 11.603943 36.669596 L 11.400854 36.430334 z " /></g><g
     inkscape:groupmode="layer"
     id="layer91"
     inkscape:label="Réteg 91"><path
       id="path4745"
       style="fill:#00fefe;stroke-width:0.264583"
       d="M 12.590446 38.174931 L 10.662398 39.784135 L 8.7338338 41.393339 L 10.121863 42.809273 L 11.509375 44.224691 L 13.626042 45.634424 L 15.742708 47.04364 L 17.330208 47.705615 L 18.917708 48.36759 L 20.455082 48.813558 L 21.992456 49.259526 L 23.762374 49.4745 L 25.532292 49.68999 L 27.78125 49.550981 L 29.664856 49.434709 C 29.953495 49.391299 30.241419 49.340449 30.528886 49.284847 L 31.882292 48.940165 L 33.014006 48.651811 C 34.492875 48.182892 35.938707 47.558732 37.327437 46.801278 L 36.223112 44.728536 L 35.073828 42.571562 C 32.590622 43.982961 29.66507 44.78533 26.444897 44.618465 C 25.55748 44.572481 24.680838 44.463421 23.820251 44.297555 L 22.621875 44.295487 L 20.681425 43.597856 L 18.740458 42.899707 L 17.261479 42.021208 L 15.781982 41.142708 L 14.186214 39.658561 L 12.590446 38.174931 z " /></g><g
     inkscape:groupmode="layer"
     id="layer92"
     inkscape:label="Réteg 92"><path
       id="path4769"
       style="fill:#00fefe;stroke-width:0.264583"
       d="M 14.1087 39.720056 L 12.356868 41.489457 L 10.605037 43.259375 L 11.586373 44.069145 L 12.567708 44.878914 L 13.758333 45.687134 L 14.948958 46.495353 L 16.271875 47.155778 L 17.594792 47.816203 L 19.05 48.296794 L 20.505208 48.776868 L 21.960417 49.099845 L 23.415625 49.422823 L 26.271265 49.450212 L 29.126388 49.477083 L 31.166056 49.062638 L 32.673458 48.75568 C 33.0795 48.633855 33.483286 48.501508 33.884237 48.356738 L 35.273816 47.760909 L 36.477877 47.244661 C 37.77509 46.59895 39.027894 45.83659 40.216667 44.972965 L 40.216667 44.969865 L 40.216667 44.807601 L 38.817269 42.937431 L 37.417871 41.066744 L 36.82876 41.421244 C 34.143103 43.434463 30.777769 44.707892 26.983366 44.637069 L 26.458333 44.701664 L 24.407812 44.442249 L 22.357292 44.182833 L 21.034375 43.754435 L 19.711458 43.326554 L 17.949809 42.412915 L 16.188159 41.499276 L 15.148429 40.609408 L 14.1087 39.720056 z " /></g><g
     inkscape:groupmode="layer"
     id="layer93"
     inkscape:label="Réteg 93"><path
       id="path4793"
       style="fill:#00fefe;stroke-width:0.264583"
       d="M 39.484412 39.366589 L 37.983728 40.589254 L 36.483044 41.811401 L 35.627283 42.243416 C 33.972255 43.271952 32.104002 44.025764 30.070516 44.391606 L 29.501042 44.568339 L 28.809611 44.566789 C 28.0414 44.641047 27.252439 44.660311 26.444897 44.618465 C 26.177004 44.604583 25.910281 44.584602 25.64443 44.559554 L 23.680208 44.554903 L 22.041032 44.11462 L 20.401855 43.674337 L 18.73374 42.891956 L 17.065625 42.109058 L 16.258956 41.567489 L 15.452804 41.02592 L 14.04307 42.910042 L 12.632821 44.794165 L 13.261723 45.279407 L 13.890625 45.764648 L 15.875 46.799727 L 17.859375 47.834806 L 19.182292 48.283358 L 20.505208 48.731909 L 22.225 49.079692 L 23.944792 49.427474 L 26.19375 49.450212 L 28.442708 49.472949 L 30.1625 49.196997 L 31.882292 48.921045 L 34.083708 48.166052 L 35.735803 47.599162 C 36.156763 47.406573 36.573391 47.201418 36.985339 46.984729 L 38.317041 46.175476 L 39.747445 45.305762 C 40.134494 45.036964 40.515253 44.757639 40.888977 44.468087 L 41.612964 43.83505 L 42.877486 42.729692 L 41.180949 41.04814 L 39.484412 39.366589 z " /></g><g
     inkscape:groupmode="layer"
     id="layer94"
     inkscape:label="Réteg 94"><path
       id="path5007"
       style="fill:#00fefe;stroke-width:0.264583"
       d="M 41.24141 37.53311 L 39.199158 39.483895 L 37.157422 41.43468 L 35.710482 42.261503 L 34.263542 43.088326 L 33.628955 43.300716 C 32.753824 43.687724 31.832644 43.999564 30.872017 44.225208 L 30.158366 44.464469 L 29.112952 44.533199 C 28.596348 44.593325 28.070035 44.628696 27.534753 44.637069 L 25.254272 44.786414 L 23.012032 44.340963 L 20.769792 43.895512 L 18.901172 43.01908 L 17.033069 42.142131 L 15.924609 43.930652 L 14.816667 45.719173 L 14.816667 46.004944 L 14.816667 46.291231 L 15.923576 46.856055 L 17.029968 47.420361 L 18.723922 48.058049 L 20.417875 48.695736 L 22.445658 49.080725 L 24.473958 49.466231 L 27.252083 49.353577 L 30.030208 49.240922 L 32.146875 48.693152 L 34.263542 48.145898 L 36.180221 47.237944 L 38.096899 46.329472 L 39.355221 45.486112 L 40.613542 44.642753 L 42.664062 42.634607 L 44.714583 40.625944 L 44.703731 40.35516 L 44.692879 40.084375 L 42.966886 38.808484 L 41.24141 37.53311 z " /></g><g
     inkscape:groupmode="layer"
     id="layer95"
     inkscape:label="Réteg 95"><path
       id="path5031"
       style="fill:#00fefe;stroke-width:0.264583"
       d="M 42.395345 35.71875 L 41.107568 37.477299 L 39.819792 39.235848 L 38.232292 40.53551 L 36.644792 41.834656 L 34.807694 42.720907 C 34.695508 42.781921 34.582641 42.841853 34.468697 42.900224 C 34.467875 42.900646 34.466936 42.900835 34.466113 42.901257 C 34.352958 42.959343 34.23885 43.015728 34.124015 43.071273 C 34.008453 43.12717 33.891918 43.18131 33.774683 43.23457 C 33.65741 43.287847 33.539104 43.339542 33.420182 43.390116 L 33.417082 43.391667 L 32.411458 43.876908 L 31.299382 44.118754 C 31.294735 44.119985 31.290077 44.121144 31.285429 44.122371 C 31.181371 44.149843 31.076786 44.176033 30.971753 44.201436 C 30.968457 44.202232 30.965231 44.203226 30.961934 44.20402 C 30.954711 44.205762 30.947458 44.207456 30.94023 44.209188 C 30.608182 44.288765 30.27142 44.357692 29.929956 44.415894 L 29.925305 44.416927 L 28.249438 44.781246 L 25.567948 44.653605 L 22.886458 44.525964 L 20.830253 43.826782 L 18.774048 43.127083 L 18.637105 43.127083 L 18.500163 43.127083 L 17.580322 45.045312 L 16.660999 46.963542 L 17.127637 47.306156 L 17.594792 47.648771 L 19.711458 48.304028 L 21.828125 48.959285 L 23.415625 49.203198 L 23.416142 49.203198 L 25.003642 49.447111 L 27.384892 49.327738 L 29.766142 49.207849 L 31.942236 48.686434 L 34.118848 48.165019 L 35.799365 47.403308 L 37.4804 46.641081 L 38.939225 45.707804 L 40.398051 44.774528 L 42.184505 43.103312 L 43.970959 41.432096 L 45.13678 39.798604 L 46.3026 38.165112 L 46.300533 37.934119 L 46.298466 37.703125 L 44.476355 36.710937 L 42.654761 35.71875 L 42.525053 35.71875 L 42.395345 35.71875 z " /></g><g
     inkscape:groupmode="layer"
     id="layer96"
     inkscape:label="Réteg 96"><path
       id="path5249"
       style="fill:#00fefe;stroke-width:0.264583"
       d="M 43.529126 33.698201 L 42.364339 35.700663 L 41.200069 37.703125 L 39.28339 39.576396 L 37.366195 41.44915 L 35.229374 42.561226 L 33.092554 43.672786 L 31.055986 44.193685 L 29.019417 44.714583 L 26.349813 44.69908 L 23.680208 44.684094 L 21.897888 44.219006 L 20.115568 43.754435 L 19.349207 45.755863 L 18.582328 47.757292 L 18.681547 47.92679 L 18.780766 48.095772 L 20.701062 48.567578 L 22.621875 49.038867 L 24.209375 49.226453 L 25.796875 49.414038 L 27.648958 49.287431 L 29.501042 49.160824 L 31.259074 48.809941 L 33.016589 48.459058 L 35.048507 47.645154 L 37.080941 46.831767 L 38.847241 45.688684 L 40.613542 44.545601 L 42.22998 43.048535 L 43.846936 41.550952 L 45.17192 39.627039 L 46.496903 37.703125 L 47.066378 36.578646 L 47.635852 35.454167 L 46.63798 35.048507 L 45.640625 34.642847 L 44.584875 34.170524 L 43.529126 33.698201 z " /></g><g
     inkscape:groupmode="layer"
     id="layer97"
     inkscape:label="Réteg 97"><path
       id="path5273"
       style="fill:#00fefe;stroke-width:0.264583"
       d="M 44.168363 31.94327 L 44.089299 32.045072 L 44.009717 32.146875 L 43.403035 33.673397 L 42.796871 35.200435 L 41.534932 36.997225 L 40.272477 38.794014 L 38.880314 40.046134 L 37.487634 41.298254 L 35.901168 42.22843 L 34.314701 43.158089 L 32.304488 43.863472 L 30.294792 44.568856 L 28.748116 44.571956 C 27.99924 44.641381 27.230983 44.659199 26.444897 44.618465 C 26.247832 44.608253 26.051773 44.593909 25.855786 44.577641 L 23.415625 44.582292 L 22.502502 44.45 L 21.588863 44.317708 L 21.012154 46.302083 L 20.434928 48.286458 L 20.60236 48.468876 L 20.769792 48.651811 L 22.092708 48.902441 L 23.415625 49.153072 L 26.458333 49.180977 L 29.501042 49.208883 L 31.721578 48.676099 L 33.942631 48.143831 L 36.218978 47.07723 L 38.495841 46.010111 L 40.435258 44.524931 L 42.374674 43.039233 L 43.774072 41.389722 L 45.17347 39.74021 L 46.134652 38.157878 L 47.095833 36.575545 L 47.738688 34.868156 L 48.381026 33.160767 L 46.274695 32.552018 L 44.168363 31.94327 z " /></g><g
     inkscape:groupmode="layer"
     id="layer98"
     inkscape:label="Réteg 98"><path
       id="path5297"
       style="fill:#00fefe;stroke-width:0.264583"
       d="M 44.533716 30.427083 L 44.056226 32.003731 L 43.579252 33.580379 L 42.557609 35.429879 L 41.536483 37.279378 L 40.057503 38.876697 L 38.579041 40.474015 L 36.757963 41.684794 L 34.937402 42.895056 L 32.748389 43.723429 L 30.559375 44.552319 L 28.887642 44.559037 C 28.09486 44.639676 27.279806 44.661729 26.444897 44.618465 C 26.223243 44.606979 26.002682 44.590582 25.782406 44.57144 L 22.997563 44.582292 L 22.87819 45.111458 L 22.758301 45.640625 L 22.498368 46.83125 L 22.237919 48.021875 L 22.231718 48.466292 L 22.225 48.911226 L 22.820312 49.041451 L 23.415625 49.172192 L 27.119792 49.095194 L 30.823958 49.018197 L 33.072917 48.290592 L 35.321875 47.563505 L 36.644792 46.896879 L 37.967708 46.23077 L 39.158333 45.424618 L 40.348958 44.618465 L 41.728202 43.452128 L 43.107446 42.285791 L 44.55542 40.391333 L 46.003394 38.496875 L 47.063277 36.247917 L 48.123678 33.998958 L 48.516418 32.626949 L 48.909676 31.254423 L 47.090666 30.841012 L 45.271655 30.427083 L 44.902686 30.427083 L 44.533716 30.427083 z " /></g></svg>
